<svg width="111" height="99" viewBox="0 0 111 99" fill="none" xmlns="http://www.w3.org/2000/svg">
<g clip-path="url(#clip0_553_446)">
<path fill-rule="evenodd" clip-rule="evenodd" d="M22.8377 89.1726C21.4063 88.2628 10.2152 75.6561 9.43441 73.7066C10.7357 72.342 12.8828 70.5224 14.7046 70.4575C14.1191 74.0965 10.5405 72.9918 12.6876 75.7211C13.8588 76.2409 15.2902 75.3312 16.2011 74.2265C15.7457 71.8871 14.7697 71.9521 15.3553 69.6127C17.3723 69.7426 16.3312 70.7174 18.153 72.082C19.1941 71.6921 29.214 63.9592 29.8647 62.5295C30.7105 60.775 30.3852 59.4103 31.9467 57.4608C36.5663 51.7423 38.7134 56.2262 42.1618 53.3019C43.7234 52.0673 49.5141 47.5184 50.0347 46.3487C48.343 43.6844 40.5352 41.67 37.0868 42.9696C31.6214 44.9841 31.2961 48.6881 27.8477 51.8723C20.8858 58.3056 10.0851 51.8073 2.47251 63.3093C-8.39326 79.75 18.9989 106.718 33.1829 96.9056C43.7234 89.6275 40.9256 79.685 47.2369 74.6164C50.6202 71.9521 55.435 70.9123 57.9075 67.0783C59.9244 63.9591 60.3148 54.6016 56.1507 54.7965C54.5892 54.8615 47.6273 61.4248 46.6513 62.9844C41.316 71.7571 45.8705 67.4682 36.5012 71.5622C35.5903 71.9521 26.5464 79.1002 26.156 79.6201C23.3582 83.779 31.231 83.779 22.8377 89.1726Z" fill="#E80800"/>
<path fill-rule="evenodd" clip-rule="evenodd" d="M84.5188 17.561L97.4016 7.29372C96.3605 10.6079 87.3816 16.9112 84.3236 20.1604L88.8131 23.9294L102.346 13.727L91.0252 23.7994C95.3846 23.7344 102.737 16.9112 105.99 14.7018C107.877 13.4021 109.438 13.5971 111 11.5826C110.284 10.023 109.373 9.17823 108.528 7.29372C107.617 5.0843 107.617 3.84963 105.73 2.87488C102.542 1.25031 102.867 -0.504235 101.11 0.145595C100.98 0.210578 100.72 0.405527 100.59 0.405527C97.5968 1.70519 99.874 0.0156291 98.0522 2.0301C95.6448 4.62942 93.3676 6.44895 90.8951 9.24321C86.9262 13.857 86.4707 10.3479 84.5188 17.561Z" fill="#E80800"/>
<path fill-rule="evenodd" clip-rule="evenodd" d="M54.7192 46.5433C55.2398 47.9729 56.2808 48.6877 57.7773 49.0126C60.1847 48.0379 85.1694 27.4382 85.8851 25.8137C84.9742 19.9652 81.5909 22.5645 78.9232 25.0339C74.7591 28.9978 55.8904 44.5288 54.7192 46.5433Z" fill="#E80800"/>
<path fill-rule="evenodd" clip-rule="evenodd" d="M51.9216 88.4574C50.7504 91.3167 51.5963 95.9955 55.4351 96.3854C58.6232 96.6453 61.0957 93.4611 61.0957 90.5369C59.9896 90.017 52.6373 88.2625 51.9216 88.4574Z" fill="#E6E6E6"/>
<path fill-rule="evenodd" clip-rule="evenodd" d="M50.9456 44.7241C53.8084 45.0491 80.8102 21.0053 81.2006 20.2905C75.8002 23.9296 70.7252 28.0235 65.52 32.1174C62.9174 34.1319 60.3149 36.2764 57.7123 38.2258C55.8905 39.5905 50.6202 42.5147 50.9456 44.7241Z" fill="#E6E6E6"/>
<path fill-rule="evenodd" clip-rule="evenodd" d="M43.7234 55.9009L45.0247 58.8901C46.6513 58.3702 53.9385 52.7817 55.0446 51.3521L52.6372 48.2979L43.7234 55.9009Z" fill="#E80800"/>
<path fill-rule="evenodd" clip-rule="evenodd" d="M52.0516 87.028C55.2398 87.3529 54.5891 85.8583 57.9074 87.4179C59.6642 88.1977 60.5751 89.0425 62.0065 89.7573C62.7222 87.4179 62.5921 87.4179 61.2908 85.4684C59.9244 83.324 60.9004 84.3637 59.9895 82.2843C57.0616 82.0243 52.0516 83.6489 52.0516 87.028Z" fill="#E6E6E6"/>
<path fill-rule="evenodd" clip-rule="evenodd" d="M42.9426 57.7206C41.6413 57.5257 38.5832 60.32 37.4121 61.4247C36.1759 62.5294 31.7515 65.2587 33.4431 67.0132C35.0698 68.7678 43.2679 60.8398 43.4631 60.19C44.1788 58.1105 43.4631 58.3705 42.9426 57.7206Z" fill="#E6E6E6"/>
<path fill-rule="evenodd" clip-rule="evenodd" d="M20.7556 75.4611L21.9918 77.4106L32.9877 68.9628L31.231 66.8184L20.7556 75.4611Z" fill="#E80800"/>
<path fill-rule="evenodd" clip-rule="evenodd" d="M91.741 5.86397C93.4327 5.47408 95.3846 3.65455 96.1003 1.96499L94.6038 0.210449C91.9362 0.600347 88.3576 3.39462 91.741 5.86397Z" fill="#E80800"/>
<path fill-rule="evenodd" clip-rule="evenodd" d="M102.672 19.7702C105.014 22.4995 109.634 18.8605 107.942 16.0662C105.86 15.4814 106.706 15.6113 104.949 17.0409C103.257 18.4056 103.127 17.8207 102.672 19.7702Z" fill="#E80800"/>
<path fill-rule="evenodd" clip-rule="evenodd" d="M95.7098 24.5141C97.5967 27.8283 100.655 24.7091 101.696 22.5646L100.46 20.7451C99.0281 21.6549 96.2954 22.8246 95.7098 24.5141Z" fill="#E80800"/>
<path fill-rule="evenodd" clip-rule="evenodd" d="M23.228 79.165C24.9197 79.7498 24.7896 78.7751 26.221 77.4754C27.7825 75.9808 34.1589 71.6269 34.6794 70.1323C32.5973 70.0023 30.255 72.7966 28.5633 74.0963C26.3511 75.7859 23.0979 77.8003 23.228 79.165Z" fill="#E6E6E6"/>
<path fill-rule="evenodd" clip-rule="evenodd" d="M84.5838 11.5178C86.2104 11.3879 86.2104 10.998 87.772 9.89327C89.0733 8.98351 89.4637 8.98351 89.6589 7.42391C86.5357 4.56466 83.6078 9.04849 84.5838 11.5178Z" fill="#E80800"/>
<path fill-rule="evenodd" clip-rule="evenodd" d="M31.8167 61.3597C33.6385 60.255 36.8917 57.9806 38.0628 56.226C34.0939 56.0961 32.9878 57.9806 31.8167 61.3597Z" fill="#E6E6E6"/>
<path fill-rule="evenodd" clip-rule="evenodd" d="M21.4713 85.5981C21.9918 86.118 22.3172 86.3129 22.9678 86.8328L24.7896 84.9483L22.4473 82.6089L20.4303 83.7136C20.6255 84.0385 20.17 84.2984 21.4713 85.5981Z" fill="#E80800"/>
<path fill-rule="evenodd" clip-rule="evenodd" d="M15.6155 79.2947L17.5674 81.1792L19.9748 79.4896L18.6084 77.4102L15.6155 79.2947Z" fill="#E80800"/>
<path fill-rule="evenodd" clip-rule="evenodd" d="M14.2491 77.5405C15.8758 78.5802 17.3722 77.2806 17.6325 75.656C16.0059 74.8112 14.5745 76.0459 14.2491 77.5405Z" fill="#E6E6E6"/>
<path fill-rule="evenodd" clip-rule="evenodd" d="M19.064 83.194C20.3653 82.6091 21.146 82.2192 21.4714 80.9196C19.8447 79.8149 19.6496 80.4647 18.2181 81.8294L19.064 83.194Z" fill="#E6E6E6"/>
</g>
<defs>
<clipPath id="clip0_553_446">
<rect width="111" height="99" fill="white"/>
</clipPath>
</defs>
</svg>
