<svg width="122" height="122" viewBox="0 0 122 122" fill="none" xmlns="http://www.w3.org/2000/svg">
<path d="M61 122C94.6894 122 122 94.6894 122 61C122 27.3106 94.6894 0 61 0C27.3106 0 0 27.3106 0 61C0 94.6894 27.3106 122 61 122Z" fill="white"/>
<path fill-rule="evenodd" clip-rule="evenodd" d="M56.8815 84.3702C57.2258 80.7361 60.1524 82.2936 63.9398 81.6014C68.9323 80.7361 73.7526 77.9674 76.8514 73.9872C79.0894 71.0454 78.9173 68.9688 82.016 69.3149C81.4996 76.0638 69.1045 86.2737 56.8815 84.3702ZM37.2559 57.2014C41.7319 58.5858 36.3951 61.7007 42.2484 71.7376C43.6256 73.9872 44.6585 75.5447 46.7244 76.9291C51.7169 80.7361 51.7169 79.1787 52.4055 81.9475C51.0283 82.6397 53.6106 82.8127 50.3396 82.2936C44.8307 81.4283 33.1242 66.2 37.2559 57.2014ZM59.636 51.1447C62.5626 47.5107 63.9398 39.7235 67.7272 36.9547L66.35 53.2213C70.3095 52.3561 74.7856 50.2795 78.7451 50.6256L67.7272 61.7007L86.1477 66.7192L68.0715 66.027L70.826 77.4482C67.5551 76.0638 65.4892 71.5645 62.3904 69.4879L56.7094 80.7361C55.16 83.851 55.16 83.3319 54.127 84.0241L54.9878 67.4114L43.4535 70.3532C46.2079 65.8539 52.0612 63.4312 54.127 59.278L38.461 55.1249C37.0838 54.6057 38.8053 55.471 37.4281 54.7788L53.9549 55.1249L51.2004 42.6653L59.636 51.1447ZM69.1045 37.993C73.5805 35.9164 83.7376 47.5107 84.254 58.0667C84.4262 60.6624 84.5984 61.5277 83.5654 63.4312C79.9502 62.0468 82.8768 62.739 81.4996 55.644C81.1553 53.2213 80.1223 50.4525 78.9173 48.549C74.9577 41.627 69.7931 41.627 69.1045 37.993ZM39.4939 51.4908C35.3622 46.1263 56.365 31.071 64.9728 36.2625C63.4234 40.9348 55.5043 33.6667 44.1421 46.1263C41.9041 48.549 42.0762 51.1447 39.4939 51.4908ZM65.8335 27.437L66.0057 27.2639C67.5551 25.5334 80.6388 30.7249 87.3528 39.2043C106.29 63.0851 87.0085 96.8297 56.7094 93.8879C38.2888 92.3304 25.7216 74.8525 26.9266 56.8553C28.1317 39.3774 45.6915 23.2838 63.5955 27.0909C63.4234 27.7831 52.0612 28.9944 50.5118 29.5136C17.4582 40.9348 23.6557 88.6964 55.8486 92.3304C73.5805 94.234 89.5908 82.9858 92.3453 64.9887C93.8947 56.3362 90.9681 46.8185 85.287 40.2426C78.573 32.6285 74.7856 31.2441 65.8335 27.437ZM97.6821 64.4695C100.953 49.4142 89.0744 30.3788 78.573 28.4753C72.0311 27.2639 71.6868 26.5717 65.8335 24.3221C47.7573 17.2271 26.9266 36.6086 24.3443 54.7788C18.1468 100.81 85.9756 118.634 97.6821 64.4695Z" fill="#E6E6E6"/>
<path fill-rule="evenodd" clip-rule="evenodd" d="M66.0057 17.4001L64.9728 21.2072C66.35 21.8994 73.064 24.6682 74.4413 25.1873C80.4667 26.7447 81.6717 28.3022 82.1882 22.0724C82.8768 20.8611 82.1882 21.3802 80.811 20.1689C83.049 17.5731 82.3604 17.7462 82.8768 14.1122C78.573 12.7278 76.5071 10.9973 71.1703 10.132C70.4817 11.3434 69.6209 13.0739 68.7602 14.2852C67.2108 15.8426 67.3829 14.6313 66.0057 17.4001ZM77.7122 18.9575C76.1628 17.4001 75.8185 17.227 73.4083 16.8809C71.6868 14.6313 72.3754 16.5348 73.064 14.8043C74.9577 13.9391 77.7122 14.6313 79.6059 15.4965C79.4337 17.9192 79.6059 17.9192 77.7122 18.9575Z" fill="#E6E6E6"/>
<path fill-rule="evenodd" clip-rule="evenodd" d="M51.5447 56.5092C53.4384 57.8936 57.9144 59.105 59.9802 59.6241C59.8081 62.912 59.6359 61.1815 58.603 63.6042L71.3424 64.6425C69.1044 62.912 64.8006 62.739 61.8739 61.3546L63.5955 57.5475L51.5447 56.5092Z" fill="#E6E6E6"/>
</svg>
