<svg width="115" height="115" viewBox="0 0 115 115" fill="none" xmlns="http://www.w3.org/2000/svg">
<path fill-rule="evenodd" clip-rule="evenodd" d="M74.3922 74.6349C74.2618 74.2511 74.4742 74.5231 74.1053 74.2809C73.0358 73.7666 71.2881 73.5617 69.1639 72.0077C66.2275 69.8538 64.2822 67.8564 64.3046 64.3088C64.312 63.597 64.1928 63.1498 64.1853 62.5499C64.1779 61.9685 64.1891 61.3723 64.1891 60.7872C64.1891 60.0829 64.3046 59.6245 64.312 59.032C64.3195 58.447 64.3046 57.8507 64.3046 57.2657L64.5393 53.0398C64.5692 52.6411 64.6474 52.6709 64.6623 52.2237L64.7816 50.5803C64.8039 49.9244 64.8822 49.4176 64.8934 48.8139C64.8971 48.3929 64.9344 48.4115 64.9865 48.0873L65.5045 42.1547C65.6685 41.0926 65.7206 40.0492 65.8436 38.9685L66.4175 34.1501C66.5032 33.0844 67.0063 30.0473 67.0063 29.22H69.9391V61.8418H72.9911V29.22C73.3786 28.9293 75.6071 29.097 76.3114 29.1119V61.7263H79.1994L79.2367 29.1045L82.6837 29.1715V61.7263H85.6649V29.22H87.8934C88.1207 30.1665 88.1468 31.3217 88.3182 32.3167C88.4002 32.8011 88.43 33.3937 88.4933 33.9042C88.7616 36.2034 89.3057 40.0008 89.4212 42.1286C89.5107 43.8242 89.8312 45.3856 89.8871 47.0588C89.902 47.5134 89.9802 47.4761 90.0063 47.8786C90.0287 48.1879 89.9802 48.4748 90.0324 48.7916C90.4945 51.7579 90.7106 59.3227 90.7106 62.6654C90.7106 63.8392 90.6398 64.9423 90.4647 66.0565C90.2485 67.4167 90.1293 67.5247 89.3504 68.5793C88.3815 69.8948 86.9766 71.2177 85.6165 72.1232C84.4352 72.9133 81.8229 74.2548 80.5 74.2809C80.5 75.8199 80.5484 77.4447 80.7273 78.9837C80.7869 79.4831 80.6975 80.1129 80.7347 80.6197L80.977 83.6642C80.9956 84.1822 80.9173 84.7896 80.9956 85.289C81.1521 86.284 81.3012 90.4651 81.3198 91.6539C81.3273 92.2128 81.4428 92.5259 81.4391 93.1743C81.4353 93.8488 81.48 94.1134 81.5508 94.7096C81.6067 95.2052 81.5173 95.8387 81.5546 96.3455L81.6738 98.6932C81.7036 99.1031 81.7819 99.0473 81.7931 99.5131C87.8188 96.2524 94.0458 90.2974 97.8245 84.5623C101.454 79.0508 104.238 72.6673 105.296 66.1012C105.818 62.8703 106.12 59.7326 106.09 56.4384C106.086 55.9949 105.989 55.6893 105.963 55.2757C105.937 54.8397 106 54.4186 105.959 53.9863C105.889 53.2149 105.788 52.4249 105.717 51.6498C105.445 48.691 104.659 45.8849 103.876 43.0416C102.561 38.2568 99.8033 33.2297 96.9786 29.1715C89.6336 18.6218 77.4927 11.288 64.8002 9.48067C62.5904 9.16764 59.8887 8.9217 57.6192 8.91797C56.71 8.91797 55.8678 9.03722 55.0442 9.04467C44.569 9.13038 33.274 14.1723 25.4334 20.9769C17.5704 27.8039 12.4018 37.0307 10.0466 47.1296C8.60074 53.3267 8.679 59.755 9.68888 66.0006C10.9969 74.061 14.5222 81.0296 19.307 87.4802C20.7566 89.4329 22.6161 91.1806 24.3229 92.9097C26.3613 94.9779 34.1571 100.706 36.7284 101.272L37.1756 92.2128C37.2762 91.5793 37.1234 90.8974 37.224 90.2676C37.3358 89.567 37.3023 89.2018 37.3135 88.4751L37.4327 86.6044C37.4327 85.8964 37.5557 85.479 37.5557 84.8455L38.0178 74.6312C38.0327 74.184 38.111 74.2101 38.1408 73.8151C38.1818 73.2263 38.137 72.4288 38.137 71.8177C29.4617 69.7532 25.3439 61.8604 24.416 53.5019C24.2521 52.0076 24.2968 50.4722 24.2893 48.9332C24.2483 40.5821 31.8728 29.2498 41.3083 29.22C47.9825 29.1976 54.1126 35.6482 56.4305 41.5584C58.4279 46.6526 58.5471 52.2051 57.2205 57.4557C55.8789 62.7548 52.8679 68.4564 47.5278 70.6438L44.1218 71.9369C44.1218 73.2039 44.364 74.6125 44.3566 75.9243C44.3529 76.6957 44.4758 77.2472 44.4796 77.918L44.7106 82.0246C44.9044 84.607 44.8671 87.7671 45.0609 90.3608L45.1764 92.3582C45.1764 94.322 45.5416 96.4611 45.5304 98.4547C45.5304 98.7752 45.5081 99.2075 45.5304 99.5131L45.7615 103.623C45.7615 104.153 45.8435 104.238 45.8845 104.674C46.7043 104.674 48.2098 105.133 49.1414 105.289L52.5251 105.777C53.8964 106.023 56.6093 106.083 57.9695 106.083C58.7074 106.087 59.1993 105.964 59.8439 105.964C62.0687 105.964 64.6921 105.572 66.779 105.155C67.7702 104.954 72.3836 103.888 72.9612 103.471L73.3414 96.3455C73.3414 96.0586 73.3227 95.6748 73.3414 95.4027C73.3712 95.0077 73.4494 95.0338 73.4643 94.5866C73.4904 93.927 73.4122 93.4351 73.5314 92.7755C73.6395 92.1905 73.5314 91.5495 73.5761 90.9458C73.6059 90.5471 73.6842 90.5732 73.6991 90.1297L73.8109 86.3659C73.8407 85.9709 73.919 85.997 73.9339 85.5536C73.9823 84.3089 73.9935 83.1462 74.0419 81.9053L74.1649 80.1501C74.1537 78.7266 74.4407 76.4348 74.3922 74.6349V74.6349Z" fill="#E80800"/>
<path fill-rule="evenodd" clip-rule="evenodd" d="M96.0843 94.1129L95.5215 94.6682L94.6645 95.5215L94.1129 96.088C93.8297 96.2072 91.128 98.6034 90.5914 99.0431C84.4836 104.033 75.9723 108.069 68.2472 109.556C63.209 110.524 61.2004 110.592 56.0877 110.666C54.6753 110.685 51.5339 110.323 50.0582 110.122C40.0637 108.769 30.5872 104.335 22.9217 97.832C17.1643 92.9503 11.7571 85.7357 8.86536 78.9125C5.79099 71.6607 4.31529 64.9381 4.34138 57.0305C4.43082 28.3103 28.3103 4.43082 57.0305 4.34138C68.087 4.30784 78.1374 7.38966 87.2822 13.5198C88.6052 14.4029 89.8088 15.342 91.0535 16.3221C93.3602 18.1332 95.7899 20.6076 97.7761 22.8584C104.204 30.1288 108.821 40.3022 110.111 49.9538C110.972 56.4193 110.819 61.7519 109.574 68.1504C108.311 74.6233 105.497 81.2379 101.86 86.7195C100.992 88.0275 100.087 89.3132 99.0953 90.528C98.6481 91.0721 96.2072 93.826 96.0843 94.1129V94.1129ZM55.1747 0H60.2241C62.7357 0.130428 65.2735 0.428548 67.3939 0.786293C78.3051 2.64209 88.0909 7.62816 96.2519 14.9917C101.074 19.3406 105.896 25.4036 108.743 31.2505C110.416 34.6826 111.784 37.906 112.839 41.5915C113.811 44.9901 114.687 50.0172 115 54.5412V60.6079C114.989 60.7346 114.974 60.8576 114.963 60.9806C114.05 68.5528 114.061 70.662 111.076 78.5697C107.536 87.953 100.444 97.1463 92.5068 103.187C89.9206 105.155 86.6674 107.323 83.7495 108.743C80.3211 110.416 77.0902 111.784 73.4085 112.839C70.0099 113.811 64.9866 114.687 60.4626 115H54.3958C54.2691 114.989 54.1424 114.974 54.0194 114.963C46.0894 114.009 44.7367 114.113 36.4303 111.076C30.6207 108.956 23.1938 104.312 18.7518 100.005C16.1544 97.4854 14.034 95.4247 11.8168 92.5068C7.4083 86.7121 4.16996 80.4143 2.16137 73.4085C0.678224 68.2361 0.644686 66.3057 0.0670771 61.1892C0.0409916 60.9507 0.0186325 60.7085 0 60.4514V55.0181C0.141607 52.3388 0.447181 49.6035 0.786293 47.6099C1.40862 43.9467 2.50794 39.8624 3.92029 36.4266C6.75243 29.5475 10.0094 24.2707 14.9917 18.7481C23.3801 9.45042 35.0552 2.90668 47.4086 0.819832C50.6283 0.279488 51.2842 0.417369 53.8629 0.115522C54.284 0.0670771 54.7238 0.0298121 55.1747 0V0Z" fill="#E80800"/>
<path fill-rule="evenodd" clip-rule="evenodd" d="M30.5909 42.914C29.1897 45.5785 28.5637 46.0331 27.837 49.5472C27.2296 52.5061 27.088 54.9134 28.0308 57.7492C28.873 60.2721 29.4357 61.8 31.1164 64.0508C33.1995 66.8419 37.3806 69.1076 36.8142 67.1699C36.7396 66.9127 36.5272 66.7413 36.3484 66.5662C34.7348 64.9824 33.2367 62.1391 32.5212 59.9516C32.1784 58.9007 31.7536 57.8685 31.4033 56.8437C31.053 55.8115 30.7325 54.5743 30.7437 53.393C30.7512 52.6402 30.6282 52.1818 30.6282 51.3993C30.6282 50.1099 30.9188 46.8231 31.2132 45.6455C31.8989 42.9327 32.1598 43.3687 31.1014 42.6904C30.8108 42.8656 30.9114 42.7724 30.5909 42.914V42.914Z" fill="#E80800"/>
<path fill-rule="evenodd" clip-rule="evenodd" d="M85.665 61.7258H82.6837V29.171L79.2367 29.1039L79.1995 61.7258H76.3114V29.1114C75.6071 29.0965 73.3786 28.9288 72.9911 29.2195H76.1586V61.8413H79.3262V29.2195H82.6129V61.8413C83.3247 61.8413 85.188 62.0239 85.665 61.7258Z" fill="#E80800"/>
<path fill-rule="evenodd" clip-rule="evenodd" d="M95.5215 94.6685L96.0842 94.1133C95.7302 94.2698 95.6407 94.2847 95.5215 94.6685Z" fill="#E80800"/>
<path fill-rule="evenodd" clip-rule="evenodd" d="M94.1129 96.0879L94.6644 95.5215C94.2843 95.6445 94.2657 95.7339 94.1129 96.0879Z" fill="#E80800"/>
<path fill-rule="evenodd" clip-rule="evenodd" d="M74.3923 74.6343L74.5525 74.3995L74.1053 74.2803C74.4743 74.5225 74.2619 74.2505 74.3923 74.6343V74.6343Z" fill="#E80800"/>
</svg>
