<svg width="73" height="61" viewBox="0 0 73 61" fill="none" xmlns="http://www.w3.org/2000/svg">
<path fill-rule="evenodd" clip-rule="evenodd" d="M19.5423 36.9873C19.4145 36.4764 19.5423 33.6664 19.5423 33.0278C20.5641 27.6632 23.2463 23.3205 28.1 20.6382C30.2713 19.3609 32.0595 18.9778 34.3586 18.5946C38.3181 17.9559 44.1936 19.7441 47.0036 22.5541C50.3245 25.6196 52.3681 28.8128 52.879 33.5387C53.39 38.0091 51.7295 42.735 48.7918 46.1836C45.3431 50.2709 39.34 52.57 34.1032 51.8036C30.5268 51.2927 28.1 50.1432 25.29 47.9718C21.9691 45.4173 20.1809 41.0746 19.5423 36.9873ZM72.2936 18.3391V23.4482C72.2936 31.6228 72.2936 39.7973 72.2936 48.0996V51.9314C72.2936 53.975 71.7827 55.7632 69.8668 57.9345C67.4399 60.7445 64.2468 61 60.7981 61H11.4954C7.91908 61 4.7259 60.7445 2.29909 57.8068C0.638636 55.7632 0.127727 53.975 0 52.0591V47.9718C0 39.6696 0 31.495 0 23.3205V18.3391C0.127727 16.5509 0.638636 14.8905 2.04363 12.9746C4.215 10.0369 7.28045 9.52595 10.7291 9.52595V6.84368C11.6232 5.94959 11.7509 6.20505 13.0282 6.20505C19.0313 6.20505 18.265 5.94959 18.265 9.52595H22.9909C22.9909 7.22687 22.8632 6.33278 23.6295 4.41687C24.0127 3.1396 25.1623 1.99005 26.0563 1.22369C28.3554 -0.436763 33.0813 0.0741454 36.1468 0.0741454C39.2122 0.0741454 43.9381 -0.436763 46.2372 1.22369C49.4304 3.65051 49.3027 5.94959 49.3027 9.52595H54.1563C54.1563 5.94959 53.39 6.20505 59.3931 6.20505C60.6704 6.20505 60.6704 5.94959 61.5645 6.84368V9.52595C65.1409 9.52595 68.2063 10.0369 70.3777 13.1023C71.7827 14.8905 72.1658 16.5509 72.2936 18.3391ZM26.9504 7.35459C26.9504 5.69414 28.1 4.16141 29.7604 4.16141H42.5331C45.5986 4.16141 45.3431 7.73777 45.3431 9.52595H26.9504V7.35459Z" fill="#1376AD"/>
<path fill-rule="evenodd" clip-rule="evenodd" d="M31.0376 30.0902C30.399 30.0902 24.5235 29.8347 24.0126 30.3456C23.7572 30.4734 23.8849 30.3456 23.7572 30.6011C23.374 31.3674 23.5017 38.7756 23.6294 39.7974C24.6513 40.6915 25.5453 40.4361 26.9503 40.4361C28.3553 40.4361 29.7603 40.4361 31.0376 40.4361V47.3333C32.0594 48.3552 34.7417 47.972 36.1467 47.972C37.5517 47.972 40.3617 48.3552 41.2558 47.3333V40.4361C42.5331 40.4361 43.9381 40.4361 45.2153 40.4361C49.558 40.4361 48.7917 40.6915 48.7917 35.5824C48.7917 34.1774 48.7917 32.6447 48.7917 31.2397C48.664 29.5793 47.0035 30.0902 45.5985 30.0902C44.1935 30.0902 42.6608 30.0902 41.2558 30.0902C41.2558 22.8097 41.8944 22.5543 39.4676 22.682H33.0812C31.9317 22.5543 31.1653 22.4265 31.0376 23.7038C31.0376 25.8752 31.0376 28.0465 31.0376 30.0902Z" fill="#1376AD"/>
</svg>
