<svg width="79" height="58" viewBox="0 0 79 58" fill="none" xmlns="http://www.w3.org/2000/svg">
<path fill-rule="evenodd" clip-rule="evenodd" d="M30.0729 15.7501L31.3195 18.8665C31.3195 18.8665 38.1755 35.6949 38.9546 37.4089C40.2011 40.5253 41.6035 43.33 42.85 46.4464L47.0571 55.328C47.3688 55.4838 47.3688 55.328 47.5246 55.7955C47.8362 56.2629 48.4595 57.1979 48.7711 57.6653C52.9782 56.8862 60.7691 54.2373 65.1321 52.8349C70.1183 51.1209 76.0394 48.472 78.9999 45.6673C78.6883 45.1998 78.2208 44.7324 78.065 44.4207C77.4417 43.9533 76.351 42.0835 75.8835 41.4602C75.2603 40.3695 74.637 39.1229 74.1695 38.188C73.2346 36.1624 71.5206 32.8902 71.0532 30.8645L69.8066 28.0598L68.7159 24.9434L66.5344 18.7107L64.5088 12.3221C64.1971 12.0105 63.5739 10.1407 63.5739 9.67321L63.4181 9.20576C63.2622 9.04994 63.2622 8.89412 63.1064 8.7383L62.3273 6.40102C61.8599 5.31029 61.3924 4.21956 61.0808 3.28465C60.7691 2.8172 60.4575 2.19392 60.1459 1.57065C59.8342 0.947376 59.5226 0.635739 59.211 0.0124655C57.6528 0.168284 55.3155 1.41483 53.7573 1.25901L53.4457 1.41483C52.3549 1.72647 54.2248 1.10319 53.2899 1.41483L50.3293 1.88229C49.5502 2.03811 48.1478 2.34974 47.3688 2.03811L46.1222 2.19392C43.0058 2.50556 41.2918 2.50556 37.8638 2.50556L35.5265 2.34974L31.6311 1.88229L28.6705 1.25901L24.7751 0.168284C24.3076 0.168284 24.6193 -0.299171 24.3076 0.324102L30.0729 15.7501V15.7501Z" fill="#FF7A00"/>
<path fill-rule="evenodd" clip-rule="evenodd" d="M19.3215 3.28488L16.3609 9.51762L14.9586 12.634L12.1538 18.7109L9.34911 24.7878C9.03747 25.7227 6.7002 30.8648 6.23274 31.3322C6.07692 32.1113 3.73964 36.7859 3.27219 37.0975C2.80473 38.8115 0.467455 41.7721 0 42.5511L4.05128 43.9535C5.60947 43.9535 10.1282 46.135 11.8422 46.135C13.712 45.3559 18.854 28.2158 19.4773 25.2553L23.3728 40.058L24.4635 43.6419C25.2426 44.7326 26.4891 51.277 28.5148 51.9003C29.4497 52.3677 30.6962 52.6793 31.6312 52.991L44.0966 57.1981L45.6548 57.5097L44.7199 55.7957C44.5641 55.7957 44.5641 55.6399 44.4083 55.4841L43.3175 53.6143C40.2012 47.3815 27.2682 17.776 27.2682 15.9062C26.9566 15.5945 27.1124 15.5945 26.8008 15.1271C26.8008 14.8155 26.645 14.5038 26.4891 14.1922C26.1775 13.5689 26.0217 13.1014 25.8659 12.3224C25.3984 11.8549 21.8146 1.7267 21.1913 0.0126953C20.568 0.635969 19.7889 2.50579 19.3215 3.28488V3.28488Z" fill="#FF7A00"/>
</svg>
