<svg width="69" height="71" viewBox="0 0 69 71" fill="none" xmlns="http://www.w3.org/2000/svg">
<path fill-rule="evenodd" clip-rule="evenodd" d="M7.72525 16.8721L7.76613 16.018C16.0657 13.6042 24.4061 10.9675 32.7057 8.44228C35.1587 7.69956 34.6681 7.95951 37.0803 8.66509C41.6594 10.0763 58.6264 14.644 61.243 16.0552C61.5701 18.3947 61.243 22.1826 61.2839 24.745C61.4883 33.6205 61.8154 37.5198 55.1103 45.504C53.6385 47.2494 50.1224 50.7402 48.2826 52.2999C46.1567 54.0824 42.5588 56.8676 40.2693 58.3531C38.4704 59.5043 36.4261 60.9155 34.5046 61.9553C31.9697 60.6926 28.4946 58.1674 26.205 56.5705C25.5918 56.0135 24.5288 55.4565 24.0382 54.8251C23.6702 54.7509 22.8116 54.0081 22.5254 53.7111L20.7265 52.1885C19.9088 51.8543 15.248 47.0637 14.4303 46.0982C12.427 43.7215 10.8325 41.6047 9.48328 38.7824C7.64348 35.1059 7.72525 32.5064 7.72525 28.5329C7.72525 24.6336 7.72525 20.7343 7.72525 16.8721ZM0.120737 11.0047C-0.12457 12.7501 0.0798525 15.9066 0.0798525 17.8005C0.0798525 23.2224 -0.369877 33.212 0.938426 37.7054C1.87877 40.7877 3.75945 44.3899 5.76279 47.0637C6.82579 48.4749 7.80702 49.6261 8.95178 50.9259C9.52417 51.5572 12.3043 54.3424 12.427 54.6766C12.9993 54.9366 13.4491 55.3822 13.7761 55.7907C14.4712 56.2735 17.1287 58.7244 18.5188 59.7642C22.7707 62.8837 24.3243 63.9977 28.9034 66.8944C30.4161 67.8599 32.9101 69.3453 34.5046 70.0509C37.7753 68.4541 37.3256 68.7511 40.3102 66.7829C45.1754 63.6264 55.5192 56.0878 59.117 52.0028C63.2464 47.2865 65.5359 44.6499 67.7845 38.5224C69.2973 34.4003 68.9702 29.6098 68.9702 25.2649C68.9293 22.9253 69.0928 12.3044 68.8884 11.0418C67.989 10.5962 39.4925 2.09202 36.4261 1.16362C34.6272 0.60658 34.9952 0.4209 33.1554 0.97794C22.1983 4.28304 10.996 7.55101 0.120737 11.0047Z" fill="#E80800"/>
<path fill-rule="evenodd" clip-rule="evenodd" d="M34.5047 53.5254C38.5931 51.4458 45.9524 44.7984 48.7325 41.6047C53.9248 35.5516 53.6795 33.7319 53.6386 27.3074C53.6386 25.3392 53.8022 22.9996 53.5977 21.0685L43.6219 17.9491C42.3136 17.6892 34.9544 15.1639 34.1776 15.3125C33.4008 15.4981 32.2561 15.9066 31.4792 16.1666C28.74 17.0207 16.1885 20.5858 15.4117 21.0685C15.2072 23.7795 15.3708 27.1217 15.3708 29.9069C15.4117 32.8778 15.4934 34.4004 17.0061 37.1113C19.4592 41.3448 29.803 51.2972 34.5047 53.5254Z" fill="#E80800"/>
</svg>
