<svg width="201" height="89" viewBox="0 0 201 89" fill="none" xmlns="http://www.w3.org/2000/svg">
<path fill-rule="evenodd" clip-rule="evenodd" d="M1.91352 66.1522C2.45066 66.7197 2.81528 67.3264 3.42299 67.8274C4.33651 68.5867 4.0111 69.0877 4.0111 70.3402C4.0111 72.4381 4.0307 74.5243 4.06599 76.6183C4.15224 81.7965 5.1677 85.0608 1 86.1528C1.27837 86.6577 2.39577 87.7341 2.94859 88.0002C4.18361 87.7067 5.54801 86.5129 6.20669 85.5266C7.13981 84.1293 6.83792 82.3132 6.83792 80.7006C6.83792 77.0919 6.66933 73.0604 6.86536 69.4987C7.51228 70.4067 10.8057 81.8552 11.4879 83.9805L13.0365 83.9884L18.055 69.3695L18.0511 81.5186L15.734 83.9845L23.893 83.9218L21.5641 81.6321L21.5993 68.6337C21.7248 67.7295 23.0735 67.0524 23.4421 66.1992L14.0246 66.2579L15.683 68.3127L12.8483 76.7905C12.3739 76.1329 10.4724 69.7844 10.0529 68.4654C10.4097 67.5612 11.2252 67.0094 11.6251 66.1091L1.91352 66.1522Z" fill="white" stroke="white" stroke-width="0.122926" stroke-miterlimit="22.9256"/>
<path fill-rule="evenodd" clip-rule="evenodd" d="M99.433 8.79218C94.9947 9.79808 92.1561 13.7082 92.9717 18.3267C93.748 22.7417 98.2685 25.7868 102.726 24.8318C107.031 23.912 109.933 19.6927 109.094 15.2503C108.27 10.8744 103.848 7.79411 99.433 8.79218Z" fill="white" stroke="white" stroke-width="0.122926" stroke-miterlimit="22.9256"/>
<path fill-rule="evenodd" clip-rule="evenodd" d="M99.0958 66.1482C101.731 68.6218 101.389 69.0837 102.797 73.5026C103.675 76.2659 104.561 79.0448 105.447 81.7925C105.036 82.36 103.742 83.3933 103.66 83.91L111.132 83.9295C110.881 83.0841 109.87 82.6183 109.45 81.8121C109.733 80.54 111.822 73.0995 112.258 72.4536C112.705 73.0838 114.794 80.8414 114.963 82.0156C114.512 82.2935 113.402 83.4677 113.269 83.91L120.852 83.9256C120.711 83.5225 119.417 82.27 119.029 82.0117L123.083 69.3694C123.757 67.295 124.282 67.5729 125.368 66.0816L118.731 66.1482L120.664 68.1052L117.633 78.7122C117.131 78.0859 114.786 69.3929 114.618 68.1169L116.574 66.0855L109.003 66.1364L110.893 67.9251C110.897 69.3303 108.384 76.716 107.819 78.6574C107.51 78.1955 104.816 68.9858 104.702 68.1286L106.655 66.0816L99.0958 66.1482Z" fill="white" stroke="white" stroke-width="0.122926" stroke-miterlimit="22.9256"/>
<path fill-rule="evenodd" clip-rule="evenodd" d="M152.064 68.4101C155.068 68.3162 159.267 67.9091 159.361 71.2751C159.467 74.88 155.068 74.4181 152.072 74.3555L152.064 68.4101ZM148.391 68.594L148.371 81.3263L145.885 83.9213L154.519 83.9566C154.17 83.2129 152.386 82.1287 152.162 81.5494C151.99 81.1072 152.084 77.3967 152.104 76.6491C159.298 75.5336 156.91 87.5692 163.874 87.3657L165.234 86.2423C163.854 85.6083 163.458 85.8979 162.835 84.2266C162.45 83.209 162.109 81.7608 161.827 80.6844C160.933 77.2753 158.326 77.2088 157.157 76.379C159.357 76.0894 161.49 75.9211 162.615 73.6627C163.552 71.7918 162.952 68.7271 161.302 67.5412C159.145 65.9873 156.981 66.0812 154.409 66.0812C151.715 66.0812 148.72 65.9599 146.066 66.1086L148.391 68.594Z" fill="white" stroke="white" stroke-width="0.122926" stroke-miterlimit="22.9256"/>
<path fill-rule="evenodd" clip-rule="evenodd" d="M182.391 66.0815C182.846 66.8878 183.646 67.4123 184.308 68.1481V81.992C183.85 82.2856 182.474 83.4363 182.297 83.9295C184.799 83.9295 187.3 83.9295 189.797 83.9295C191.852 83.9295 194.82 84.2778 196.565 83.2171C199.748 81.2718 201.336 76.2032 200.493 72.5318C199.627 68.7548 196.682 65.2831 192.471 65.6393C187.39 66.0737 187.414 73.0641 192.656 72.8919L193.871 70.8097C192.648 70.8919 191.785 70.8449 191.197 69.7177C190.848 66.2381 197.121 67.1657 196.674 75.5261C196.372 81.1192 193.11 82.1955 187.97 81.7102L187.904 66.0541L182.391 66.0815Z" fill="white" stroke="white" stroke-width="0.122926" stroke-miterlimit="22.9256"/>
<path fill-rule="evenodd" clip-rule="evenodd" d="M130.599 76.6177C130.218 73.5452 130.548 69.1498 133.982 68.1595C137.93 67.0244 140.193 69.5646 140.671 73.2047C142.133 84.2735 131.528 84.1091 130.599 76.6177ZM133.818 65.8894C128.783 66.9031 125.631 71.8426 126.251 76.9347C126.921 82.3948 132.477 84.8137 137.589 84.0269C149.904 82.1325 145.964 63.4431 133.818 65.8894Z" fill="white" stroke="white" stroke-width="0.122926" stroke-miterlimit="22.9256"/>
<path fill-rule="evenodd" clip-rule="evenodd" d="M56.3641 78.7783C55.7172 78.2538 54.7253 78.0738 55.2154 76.8291C55.5251 76.0424 56.6895 75.8272 57.4227 76.246C58.9557 77.1266 58.6695 79.702 57.4698 80.8019C54.6194 83.4203 50.538 81.4399 49.4637 78.0777C48.507 75.0717 48.7188 69.7448 51.9377 68.3631C53.5295 67.6821 55.9877 67.8856 57.556 68.5784C59.7399 69.5412 60.4142 70.8329 61.363 71.3691L60.673 65.9403C60.0731 66.1126 59.8261 66.4883 59.2576 66.7897C55.7094 65.6507 52.5258 64.6879 49.0755 67.0832C43.4141 71.0168 43.4729 80.5201 49.8989 83.4517C51.5417 84.1992 53.4236 84.4263 55.2271 84.2227C58.0853 83.8979 58.4225 83.0329 59.7281 82.4458C60.3985 82.9507 60.7867 83.8431 61.5002 84.1992L61.5159 77.1227C62.9235 76.242 63.4449 75.3301 63.5312 73.6275C62.6451 73.9993 62.6569 74.5355 61.461 74.5003C59.4419 74.4377 56.4112 73.1578 54.3489 74.3868C52.9845 75.2009 52.5493 77.0327 53.157 78.4691C54.0627 80.6179 55.0938 79.5376 56.3641 78.7783Z" fill="white" stroke="white" stroke-width="0.122926" stroke-miterlimit="22.9256"/>
<path fill-rule="evenodd" clip-rule="evenodd" d="M90.4702 77.698L88.0315 77.0561C86.5613 85.1699 75.6304 83.2912 77.4966 73.1421C79.0139 64.8679 88.2158 67.913 86.4397 72.1871C86.0751 73.0599 85.0792 73.0912 84.2755 72.8447C83.1738 72.5081 83.2875 72.0032 82.8484 71.1147C82.3269 71.4591 81.5428 72.6607 81.4487 73.3222C81.5545 74.0267 85.4007 77.3654 88.502 73.784C90.1526 71.874 89.5684 67.369 87.7375 65.8034C87.3258 66.0304 87.1611 66.2926 86.9651 66.7466C84.5264 66.23 83.8207 65.4002 80.9037 65.8386C74.6423 66.7779 71.5764 73.3926 73.9405 78.9153C77.1281 86.3441 90.2546 86.6103 90.4702 77.698Z" fill="white" stroke="white" stroke-width="0.122926" stroke-miterlimit="22.9256"/>
<path fill-rule="evenodd" clip-rule="evenodd" d="M34.0358 69.6199C34.4749 70.6454 36.2236 75.6788 36.251 76.5477C34.4397 75.7492 33.926 76.0076 31.95 76.2581L34.0358 69.6199ZM31.6716 68.0034C31.4599 69.522 30.3033 72.9351 29.7623 74.5007C29.1938 76.1446 28.7978 79.0448 25.6102 75.7414C24.4458 77.4558 25.9709 79.2875 27.8882 79.5341C27.1589 82.5283 25.3632 83.0489 24.9124 83.9256L31.7932 83.8826L29.9112 81.8003C30.1935 80.7592 30.5621 79.2993 31.6481 78.8883C32.6675 78.5008 34.9141 78.2112 35.9374 78.5439C37.1606 78.9392 37.6507 80.1016 37.8899 81.315C38.1173 82.4696 36.796 82.8649 36.2432 83.9256L43.8925 83.8904C41.9596 82.086 41.8772 82.3209 41.3675 80.814C40.4932 78.219 37.043 68.9741 36.9058 67.7881L38.6426 66.0816L29.9112 66.1403L31.6716 68.0034Z" fill="white" stroke="white" stroke-width="0.122926" stroke-miterlimit="22.9256"/>
<path fill-rule="evenodd" clip-rule="evenodd" d="M166.187 68.4496C166.234 69.3068 166.332 81.088 166.151 81.5929C166.089 81.7768 164.246 83.7573 164.109 83.8943C168.598 84.3875 175.612 83.182 179.576 84.5519C179.843 84.0861 180.717 80.9236 180.921 80.176C183.359 71.2168 173.671 72.4536 174.059 76.6612C174.648 77.0878 175.51 78.1798 176.22 78.1564C176.239 77.4244 176.145 76.3911 176.922 76.0037C177.725 75.6044 178.372 76.1093 178.517 76.9313C178.76 78.3364 177.878 80.2386 177.518 81.6203L169.798 81.6281L169.743 68.4496L172.244 66.2773L164.073 66.1951C164.666 67.0836 165.481 67.6825 166.187 68.4496Z" fill="white" stroke="white" stroke-width="0.122926" stroke-miterlimit="22.9256"/>
<path fill-rule="evenodd" clip-rule="evenodd" d="M76.7007 40.6634L77.7671 42.3112C80.1313 41.0391 81.0605 39.6301 84.0167 41.3797C85.9261 42.5108 86.867 43.8846 89.2195 44.6753C95.0927 46.644 97.253 40.6008 101.413 40.6282C105.471 40.6516 107.741 46.6753 113.661 44.7066C116.006 43.9277 116.954 42.7222 118.856 41.4384C121.687 39.5283 122.589 41.0587 124.792 42.3151L125.937 40.6908C125.039 39.4774 122.067 37.814 119.573 38.7025C117.358 39.497 116.159 41.2544 114.12 42.2016C108.219 44.9453 106.686 38.4911 101.409 38.4598C96.0768 38.4285 94.4497 45.0197 88.7451 42.1546C86.7141 41.137 85.5771 39.4148 83.2404 38.7025C81.0409 38.0332 78.1513 38.9725 76.7007 40.6634Z" fill="white" stroke="white" stroke-width="0.122926" stroke-miterlimit="22.9256"/>
<path fill-rule="evenodd" clip-rule="evenodd" d="M76.7007 52.4411L77.775 54.0615C79.998 52.809 81.1546 51.4195 83.9265 53.0947C85.8045 54.2298 86.871 55.6153 89.1097 56.3903C95.0652 58.4491 97.1236 52.4959 101.248 52.3824C105.439 52.2728 107.494 58.316 113.508 56.5117C117.323 55.3648 119.095 51.58 122.126 52.4724C123.2 52.7894 124.012 53.7601 124.843 54.0106L125.921 52.4528C124.643 50.7659 121.624 49.7052 119.562 50.4528C117.425 51.2238 116.112 52.9969 114.116 53.9754C108.466 56.7387 106.537 50.2297 101.409 50.2023C96.2454 50.1788 94.1635 56.813 88.749 53.9284C86.7102 52.8403 85.5889 51.2042 83.2522 50.4567C81.2212 49.803 77.873 50.7776 76.7007 52.4411Z" fill="white" stroke="white" stroke-width="0.122926" stroke-miterlimit="22.9256"/>
<path fill-rule="evenodd" clip-rule="evenodd" d="M76.7281 46.4722C76.8654 47.0358 77.3868 47.7716 77.8142 48.163C79.2962 47.4781 80.7273 45.4036 83.8677 47.1806C85.7575 48.2491 86.7769 49.6738 89.0509 50.4958C94.9712 52.6328 97.1785 46.5974 101.248 46.4996C105.467 46.4017 107.443 52.445 113.571 50.6132C115.912 49.9126 116.923 48.6131 118.809 47.3606C122.024 45.2197 122.553 47.1923 124.859 48.1865L125.941 46.5113C120.315 41.4583 117.433 46.3704 114.273 48.0182C108.568 50.9968 106.604 44.3743 101.409 44.3469C96.2728 44.3155 94.038 51.0516 88.5961 47.9673C86.6514 46.8636 85.4282 45.2158 83.1855 44.5621C80.9429 43.9007 78.2925 44.8674 76.7281 46.4722Z" fill="white" stroke="white" stroke-width="0.122926" stroke-miterlimit="22.9256"/>
<path fill-rule="evenodd" clip-rule="evenodd" d="M64.5346 66.0856C64.8718 66.4496 65.1894 66.978 65.5423 67.3616C66.1225 67.9878 66.3225 67.8 66.3539 68.7589L66.3617 81.6634C65.9147 82.2975 64.5307 83.4443 64.3739 83.9257L72.2584 83.9296C72.0898 83.1781 70.4118 82.2936 70.0942 81.4873L70.106 68.1326L72.0545 66.0856H64.5346Z" fill="white" stroke="white" stroke-width="0.122926" stroke-miterlimit="22.9256"/>
<path fill-rule="evenodd" clip-rule="evenodd" d="M113.834 5.97757C112.724 6.11847 106.6 9.7272 107.898 11.101C109.152 12.4279 113.324 6.97564 113.834 5.97757Z" fill="white" stroke="white" stroke-width="0.122926" stroke-miterlimit="22.9256"/>
<path fill-rule="evenodd" clip-rule="evenodd" d="M89.6116 29.0822C90.5486 28.7299 92.1914 27.2857 93.0108 26.632C93.9479 25.8844 95.6377 24.6241 95.0182 23.1877C93.0696 22.7924 90.2154 27.5009 89.6116 29.0822Z" fill="white" stroke="white" stroke-width="0.122926" stroke-miterlimit="22.9256"/>
<path fill-rule="evenodd" clip-rule="evenodd" d="M101.248 33.5519C101.648 32.906 101.887 30.5772 101.981 29.6691C102.103 28.4832 102.515 26.1074 101.091 25.6612C99.2173 25.7238 100.825 32.7417 101.248 33.5519Z" fill="white" stroke="white" stroke-width="0.122926" stroke-miterlimit="22.9256"/>
<path fill-rule="evenodd" clip-rule="evenodd" d="M109.937 16.6477L109.901 17.2974C110.897 18.178 112.403 17.9471 113.681 17.7866C114.873 17.634 116.661 17.4774 117.672 16.9569C116.931 16.495 111.332 15.2973 109.937 16.6477Z" fill="white" stroke="white" stroke-width="0.122926" stroke-miterlimit="22.9256"/>
<path fill-rule="evenodd" clip-rule="evenodd" d="M100.966 8.09524C103.491 8.06784 101.295 0.306347 101.248 0.208496C100.832 0.815169 100.534 3.20272 100.425 4.07555C100.268 5.29672 99.8915 7.26156 100.966 8.09524Z" fill="white" stroke="white" stroke-width="0.122926" stroke-miterlimit="22.9256"/>
<path fill-rule="evenodd" clip-rule="evenodd" d="M107.219 23.3796C107.204 25.4384 112.316 28.5383 113.03 28.691C112.598 27.6263 108.944 22.3463 107.604 23.0078L107.219 23.3796Z" fill="white" stroke="white" stroke-width="0.122926" stroke-miterlimit="22.9256"/>
<path fill-rule="evenodd" clip-rule="evenodd" d="M94.5714 10.9128C95.3633 9.7034 93.2462 8.34132 92.4071 7.72291C91.6387 7.15538 89.545 5.75416 88.7217 5.53497C89.4784 6.97142 92.8266 11.5508 94.5714 10.9128Z" fill="white" stroke="white" stroke-width="0.122926" stroke-miterlimit="22.9256"/>
<path fill-rule="evenodd" clip-rule="evenodd" d="M84.3811 16.9644C86.2042 17.2853 90.8816 18.5104 92.2421 17.1092L92.2617 16.4829C91.16 15.3166 85.3025 16.2246 84.3811 16.9644Z" fill="white" stroke="white" stroke-width="0.122926" stroke-miterlimit="22.9256"/>
<path fill-rule="evenodd" clip-rule="evenodd" d="M113.355 21.9545C112.701 21.1404 110.18 19.7549 109.203 20.1776C109.027 21.5397 112.352 21.888 113.355 21.9545Z" fill="white" stroke="white" stroke-width="0.122926" stroke-miterlimit="22.9256"/>
<path fill-rule="evenodd" clip-rule="evenodd" d="M96.3983 29.2039C97.155 28.4993 98.4566 26.0218 97.9979 25.0589C96.6963 24.8437 96.3473 28.2175 96.3983 29.2039Z" fill="white" stroke="white" stroke-width="0.122926" stroke-miterlimit="22.9256"/>
<path fill-rule="evenodd" clip-rule="evenodd" d="M97.7941 8.62789C98.0646 7.51631 96.6257 5.26184 95.7632 4.55731C95.8298 5.32055 96.0886 6.22077 96.3238 6.9566C96.61 7.849 96.7786 8.71791 97.7941 8.62789Z" fill="white" stroke="white" stroke-width="0.122926" stroke-miterlimit="22.9256"/>
<path fill-rule="evenodd" clip-rule="evenodd" d="M106.428 29.0075C106.361 28.3108 106.09 27.3166 105.863 26.6434C105.545 25.7197 105.408 24.8978 104.369 24.9369C104.201 26.1268 105.494 28.2873 106.428 29.0075Z" fill="white" stroke="white" stroke-width="0.122926" stroke-miterlimit="22.9256"/>
<path fill-rule="evenodd" clip-rule="evenodd" d="M92.7913 13.8372C93.105 12.5455 89.5215 12.2598 88.6628 12.2716C88.8902 12.6042 91.7327 14.4399 92.7913 13.8372Z" fill="white" stroke="white" stroke-width="0.122926" stroke-miterlimit="22.9256"/>
<path fill-rule="evenodd" clip-rule="evenodd" d="M104.992 8.84289C106.208 9.22647 106.851 5.8565 106.972 4.95236C106.196 5.4651 104.463 7.95441 104.992 8.84289Z" fill="white" stroke="white" stroke-width="0.122926" stroke-miterlimit="22.9256"/>
<path fill-rule="evenodd" clip-rule="evenodd" d="M109.525 14.0209C110.364 14.471 113.21 12.9641 113.633 12.2987C112.716 12.3887 109.031 12.7645 109.525 14.0209Z" fill="white" stroke="white" stroke-width="0.122926" stroke-miterlimit="22.9256"/>
<path fill-rule="evenodd" clip-rule="evenodd" d="M89.0823 22.1189C89.9801 22.1424 93.3519 21.4613 92.952 20.2127C92.011 19.8174 89.4939 21.4613 89.0823 22.1189Z" fill="white" stroke="white" stroke-width="0.122926" stroke-miterlimit="22.9256"/>
</svg>
