<svg width="84" height="125" viewBox="0 0 84 125" fill="none" xmlns="http://www.w3.org/2000/svg">
<path fill-rule="evenodd" clip-rule="evenodd" d="M78.2645 83.398C77.9927 81.5861 76.5248 77.6877 78.3732 76.7543C78.8625 77.3583 79.2974 81.8606 80.1129 83.6176L83.6467 82.19C83.4836 81.4762 76.1986 67.9144 75.4918 67.0908L65.0537 69.0674C64.3469 73.2952 62.281 82.8489 62.7703 86.5825L65.9235 85.5942C66.4128 83.5627 64.6187 79.6094 65.5973 78.127C67.2827 80.433 66.1953 85.2099 68.4243 85.3197C70.5989 84.2216 66.9021 80.5977 68.6962 78.0172C70.5446 79.4447 69.7291 83.0685 70.5446 84.9902L71.9037 84.8255C71.4688 83.2332 70.8164 78.6211 71.5775 77.4132C73.2085 78.2368 73.0998 82.9587 73.1541 84.8804L75.5462 83.8921C75.3287 82.6842 74.9482 81.5861 74.622 80.433C73.6978 76.6994 74.024 77.7426 74.7851 77.523C75.7093 79.3349 75.1657 81.8606 76.3617 83.7823L78.2645 83.398Z" fill="#995555"/>
<path fill-rule="evenodd" clip-rule="evenodd" d="M71.8494 92.5666C73.2085 98.4965 75.7093 119.746 77.1772 121.228C79.3518 120.624 76.9054 120.075 79.678 120.24C80.3304 120.295 82.5594 119.8 83.103 119.471C83.2118 118.538 80.3304 105.36 79.8955 103.054C79.4062 100.693 77.8839 96.6846 77.7208 95.257C77.3947 92.7313 77.8296 89.1623 75.9812 86.966C70.8708 85.4835 70.9795 88.778 71.8494 92.5666Z" fill="#995555"/>
<path fill-rule="evenodd" clip-rule="evenodd" d="M73.9695 65.1141C73.8608 63.3022 73.154 60.8864 74.0783 59.4588C75.1112 61.2707 74.2414 63.3022 75.1656 65.0592L78.2644 64.2356C77.9382 61.5452 75.9267 60.6667 74.7306 58.5803C73.6433 56.6586 73.0453 54.5173 71.9036 52.2661L63.6944 54.0231C62.7702 57.7567 61.4111 63.6866 61.5198 67.4751L64.5643 67.0358C64.9448 63.5768 62.879 62.2041 64.1837 60.6118C66.1953 61.6001 65.1623 65.4436 66.304 66.926L67.7719 66.4319C67.8262 64.4004 66.2496 62.1492 67.3913 60.7217C68.5873 61.8747 68.2068 64.7298 69.1854 66.2123L70.9251 65.2789C70.327 63.6317 69.6203 61.0511 70.5989 59.8432C71.3056 61.106 71.4687 61.9845 71.7949 63.3571C72.2842 65.4436 72.0124 65.3887 73.9695 65.1141Z" fill="#995555"/>
<path fill-rule="evenodd" clip-rule="evenodd" d="M68.2069 50.5639C71.0882 50.2893 68.4243 47.3245 69.7291 46.3362C70.9251 46.7754 69.9466 47.9833 70.5989 49.1912C71.197 50.3991 72.6648 50.0148 72.8823 48.9167C73.0454 47.9284 70.6533 44.744 70.1097 43.6459C69.2942 42.1085 64.9993 33.4885 64.0207 33.4336C63.3683 34.4219 62.281 43.2066 61.5199 45.4028C61.085 46.7205 60.052 50.7835 61.3024 51.5521C64.2382 53.5287 62.9334 48.4775 63.7489 47.5441C64.51 48.752 63.8032 52.5953 66.6846 50.7286C66.7934 49.2461 65.4886 48.148 66.739 46.8852C68.5874 47.4892 66.6846 49.0814 68.2069 50.5639Z" fill="#995555"/>
<path fill-rule="evenodd" clip-rule="evenodd" d="M19.0361 78.5657C19.2536 75.8204 18.0575 74.6125 18.0032 72.8555C20.3952 72.4162 20.1234 76.2596 20.3409 77.9068L24.4727 77.3029C23.9834 75.7106 17.5682 65.3882 16.3178 63.8508C14.7956 63.7959 10.9357 64.7842 9.25034 65.1686C6.36897 65.7725 4.62927 65.2784 3.75943 68.1884C3.21577 70.1651 0.823694 80.3227 0.932425 81.8052L5.44476 80.8718C5.60785 79.1697 3.92252 74.5026 5.55349 73.734L6.26024 81.0914L8.43485 80.3227C8.48922 78.2912 6.85826 75.3811 7.83683 73.6791C9.79399 74.7223 8.92414 80.762 11.0444 80.158C12.8928 78.8951 10.4464 74.6674 11.3162 73.2398C13.0559 74.283 12.8928 77.5225 13.1646 79.6089L15.7742 78.8951C15.3936 75.8753 14.5238 74.0085 15.2849 72.9104C16.3722 73.6791 16.6984 77.248 16.6984 78.7304L19.0361 78.5657Z" fill="#995555"/>
<path fill-rule="evenodd" clip-rule="evenodd" d="M15.9917 83.1781C14.7413 82.5192 12.458 82.629 11.2076 83.233C10.6639 86.8018 13.056 95.1474 13.9802 98.9359C14.6326 101.736 14.6326 104.262 15.1219 107.062L18.71 122.435C19.2537 124.632 21.8632 125.785 21.2108 123.643C20.3953 120.898 17.7314 110.521 19.0362 108.489C20.341 110.631 20.4497 120.074 23.3854 124.302C25.3426 120.02 22.4612 118.482 22.135 114.2C21.8088 110.576 20.7759 107.556 19.9604 104.042C19.5255 102.34 18.8187 100.748 18.4925 99.0457C18.1664 97.2339 16.5354 83.7271 15.9917 83.1781Z" fill="#995555"/>
<path fill-rule="evenodd" clip-rule="evenodd" d="M14.5781 62.6431C15.5566 60.4469 13.7626 59.0742 14.5781 57.427C15.5566 58.1957 15.8285 60.6665 16.1547 62.2039L19.1991 61.5999C19.2535 59.8429 13.8713 52.7051 12.4034 51.1677C10.7181 50.8932 5.33593 51.8815 3.6506 52.4855C1.31288 58.4703 1.9109 56.7133 1.20415 61.545C0.986692 63.2471 0.388672 63.1922 0.388672 64.8394L3.8137 63.9609C3.92243 62.2588 2.94385 59.4037 3.59623 58.3055C5.00974 59.2389 4.57481 62.4235 5.11846 64.2354L7.67364 63.2471C8.0542 60.9959 6.91252 59.4037 7.83674 58.3604C8.92405 59.9527 8.86968 61.0508 9.03278 63.0824L11.4249 62.7529C11.8598 61.2156 10.6094 59.3488 10.3375 57.6467C11.4249 57.9761 10.7725 57.3721 11.6423 58.7997C13.4907 61.7646 11.3705 62.9726 14.5781 62.6431Z" fill="#995555"/>
<path fill-rule="evenodd" clip-rule="evenodd" d="M8.97854 49.082C12.6754 49.2467 9.95712 46.6661 10.7182 45.0189C11.9687 46.3366 11.6425 50.1801 14.4151 47.7093L4.52057 33.4336C3.59635 34.5866 0.33442 48.8074 0.551882 50.5645L2.99833 49.9605C3.32453 48.2584 2.61777 47.4348 3.54199 46.2817C4.95549 47.8191 3.43326 47.9289 4.4662 49.9605L7.34758 49.3016C7.51067 47.7093 6.91265 46.6661 7.83687 45.2934C9.25037 46.4465 7.7825 47.325 8.97854 49.082Z" fill="#995555"/>
<path fill-rule="evenodd" clip-rule="evenodd" d="M46.9909 56.2239C46.8278 52.7649 45.2512 51.8864 45.8492 46.7801C46.9365 47.4939 46.9909 49.2509 47.5889 51.2824C47.9694 52.6001 48.35 54.4669 49.1111 55.6749L52.9711 55.0709C53.0798 52.9845 50.9595 51.3373 50.1441 49.4156C48.5131 45.5721 42.4785 35.9087 41.4456 33.2183L28.0173 35.5792C28.4522 40.411 23.7768 51.5569 25.0272 60.5615L30.0288 58.9692L28.2891 47.9331C30.79 50.0195 30.0288 54.3022 31.4967 57.5417C32.1491 59.0242 31.8773 59.0242 33.8344 58.8045C34.7586 53.4786 32.1491 51.4471 31.986 48.1527L32.8558 47.7684C34.9761 49.745 34.9217 54.5218 35.6828 57.2122L37.7487 57.1573C37.8575 54.7415 34.813 49.0861 35.6828 47.2193C38.0206 47.6586 38.3468 55.7847 38.8904 57.9809L41.8261 57.7064C42.5329 55.62 41.4456 54.9062 40.7388 52.7648C40.2495 51.1177 40.5757 48.592 39.7603 47.384C41.1738 47.0546 40.8476 47.1095 41.3369 48.9214L43.5115 56.8279C46.3928 56.6083 43.7289 57.4868 46.9909 56.2239Z" fill="#995555"/>
<path fill-rule="evenodd" clip-rule="evenodd" d="M39.4885 30.4179C38.9448 28.5511 36.7702 24.4881 37.4769 22.9507C39.3254 23.8292 39.5972 29.21 40.6301 30.8572L43.0222 29.5944C42.5873 27.2334 29.7571 0.933403 28.561 0C27.2562 5.4357 27.7455 11.8597 26.5495 16.966C25.9515 19.7662 23.9943 30.967 24.6467 32.9985C27.3106 33.9868 25.9515 32.5044 28.8872 33.2182C29.1047 30.9121 27.2019 26.4647 28.3436 24.7077C29.8658 27.6177 29.3221 28.7159 30.0289 31.6259L34.3781 31.4063C35.5198 28.7159 31.7142 25.3117 33.5626 24.3783C34.5412 25.0372 35.0849 30.3081 36.0091 31.7357C36.3896 31.6808 39.3254 30.5278 39.4885 30.4179Z" fill="#995555"/>
<path fill-rule="evenodd" clip-rule="evenodd" d="M51.177 99.7646C50.0897 96.9644 48.1869 85.9833 47.4802 82.4693C46.719 78.7907 45.3055 74.7276 44.7075 71.3235C44.2182 68.5233 44.3813 62.2092 41.9349 60.2875C36.1721 58.805 38.2924 62.9779 38.9991 69.1822C39.271 71.4333 39.271 73.6295 39.4884 75.7709C39.7603 77.8573 40.7932 79.1201 41.2281 81.2065C41.8805 84.3361 44.2726 104.157 46.2297 104.816C47.9694 103.553 44.2726 92.9014 44.8706 89.3874C45.8492 91.6935 46.1754 95.1525 46.7734 97.8429C48.2413 104.102 46.8278 104.871 49.7091 104.596C49.4917 102.18 47.0996 91.7484 47.6976 90.7601C48.8393 92.3524 49.9266 101.631 50.7964 104.377C53.0254 103.937 51.8294 101.522 51.177 99.7646Z" fill="#995555"/>
</svg>
