<svg width="87" height="84" viewBox="0 0 87 84" fill="none" xmlns="http://www.w3.org/2000/svg">
<path fill-rule="evenodd" clip-rule="evenodd" d="M3.43616 54.8026L0.624667 55.4233C-1.56205 63.4929 2.65519 64.2688 3.74854 64.8896C5.31048 66.1311 3.59235 64.5792 4.06093 66.1311L8.74675 67.5277C5.15429 73.7351 4.21713 79.3218 11.7144 83.9773C12.3392 83.8222 34.3625 73.2696 34.8311 72.9592C29.2081 70.7866 25.7719 77.1492 22.0232 74.6662L29.052 71.5625C24.9909 69.39 20.7737 71.4074 16.5564 67.3726C19.9927 67.3726 39.6731 72.0281 44.2028 73.2696L72.4738 78.5459C72.4738 76.6836 70.5995 64.7344 79.3464 61.7859C79.1902 62.8722 70.5995 73.2696 74.8168 79.1666C77.7844 81.4944 85.7503 76.3733 82.9388 64.5792C82.0017 59.9237 84.1884 62.4066 82.4703 59.7685C80.4397 59.6133 77.4721 62.2514 75.7539 59.3029L81.0645 58.527C79.034 55.2681 78.7216 54.9578 78.253 50.7678C77.3159 40.6807 81.3769 45.4915 75.9101 42.8533C77.9406 36.0252 72.4739 36.8011 69.35 41.3015C67.9442 43.6293 67.9442 44.7156 65.9137 46.5778C60.2907 51.2333 61.0717 54.6474 52.1686 58.9926C47.0142 61.6307 42.4846 61.01 37.0178 61.6307C42.016 63.3377 58.5726 66.4414 59.0412 67.2174C34.3625 64.5792 47.0142 65.0448 30.7701 61.7859C26.3967 60.8548 6.40384 56.0441 3.43616 54.8026Z" fill="#E6E6E6"/>
<path fill-rule="evenodd" clip-rule="evenodd" d="M33.2691 50.1472C30.3014 48.4402 26.2404 40.8361 25.928 37.422C25.147 31.0595 26.0842 27.1798 30.6138 22.8346C34.9872 18.6447 46.7018 6.22986 45.7646 0.0224609C42.016 0.0224609 37.9549 9.64393 35.4558 13.058C32.3319 17.0928 27.9585 21.7484 24.3661 25.3176C14.0573 35.5598 16.0878 48.4402 28.2709 56.0442C39.8293 63.3379 53.5743 56.665 61.384 47.5091C66.3822 41.7672 64.6641 35.8702 59.8221 30.9043C56.0734 26.8695 53.1057 18.6447 49.3571 19.1102L45.296 37.8876C41.5474 34.008 44.0465 28.5765 45.4522 24.2313C46.858 20.5069 46.3894 12.5924 46.2332 8.24726C44.5151 9.48874 40.9226 15.2306 39.3607 17.5584C36.8616 21.1276 34.9872 22.8346 32.4881 26.0935C28.8957 30.7491 29.8328 39.5946 30.77 45.1813C31.3948 49.0609 31.7072 47.0435 33.2691 50.1472Z" fill="#FFBD3D"/>
<path fill-rule="evenodd" clip-rule="evenodd" d="M79.8151 43.6293C79.3465 47.9744 79.1903 49.2159 81.0646 53.2507C82.158 55.7337 82.9389 58.9926 84.9695 60.5444C89.4991 56.9752 85.4381 43.4741 79.8151 43.6293Z" fill="#E6E6E6"/>
</svg>
