<svg width="72" height="86" viewBox="0 0 72 86" fill="none" xmlns="http://www.w3.org/2000/svg">
<g clip-path="url(#clip0_553_468)">
<path fill-rule="evenodd" clip-rule="evenodd" d="M21.6686 13.5787C20.468 22.4805 26.7709 36.9647 25.4202 41.491C24.3698 44.9612 14.6154 56.7296 12.8146 61.8594C14.9155 60.5015 18.9673 54.6173 21.2184 52.2033C23.9196 49.3366 25.1201 44.3577 28.1215 41.3401C30.2224 46.47 4.26073 72.8735 2.30985 78.1542L13.4148 66.8384C12.9646 70.9121 3.06019 79.6629 0.0588379 82.6805C4.4108 87.0559 4.26073 86.3015 8.46262 81.7752C17.0165 72.27 21.8186 67.1401 29.0219 55.8243C34.8745 46.7717 33.674 45.2629 44.1787 40.5857C47.9304 38.7752 60.9862 31.2314 63.2373 28.5156C63.8375 25.3471 61.7366 22.3296 59.7857 19.9156C52.1323 22.0278 42.678 37.7191 34.2742 33.9471C30.0723 28.2138 31.2729 18.4068 29.7722 12.5226C27.3711 11.6173 23.7695 12.07 21.6686 13.5787Z" fill="#995555"/>
<path fill-rule="evenodd" clip-rule="evenodd" d="M49.5811 66.5369C45.0791 68.1966 45.2292 64.4247 43.2783 62.6141C38.0259 71.8176 51.8321 76.1931 58.5852 74.8352C57.6848 71.365 57.6848 75.4387 56.6343 71.8176C58.7352 69.8562 60.536 70.0071 61.5865 67.4422C59.7857 63.8211 53.0327 60.0492 48.9808 60.351C48.9808 63.6703 50.1814 63.5194 49.5811 66.5369Z" fill="#995555"/>
<path fill-rule="evenodd" clip-rule="evenodd" d="M58.4351 72.27C70.8907 73.3261 70.7406 65.3296 70.8906 55.07C71.0407 50.6945 69.8402 29.7226 68.4896 26.856C64.7379 31.5331 68.9398 45.5647 68.4896 52.5051C66.6888 76.7963 63.6874 66.084 58.4351 72.27Z" fill="#E6E6E6"/>
<path fill-rule="evenodd" clip-rule="evenodd" d="M26.0206 72.4208C17.3167 75.1366 22.4189 84.491 28.5717 82.2278C35.3248 79.6629 35.3248 69.4033 26.0206 72.4208Z" fill="#E6E6E6"/>
<path fill-rule="evenodd" clip-rule="evenodd" d="M42.528 31.6843C44.1787 29.2703 43.2783 27.0071 42.528 23.6878C42.0778 21.1229 41.7776 19.0106 40.277 16.7475C38.4762 13.7299 34.1242 10.8632 31.423 7.99658C29.4721 11.7685 36.0751 14.7861 38.0259 17.8036C39.9768 20.8211 39.5266 24.8948 40.427 28.5159C41.0273 30.9299 40.8772 30.779 42.528 31.6843Z" fill="#E6E6E6"/>
<path fill-rule="evenodd" clip-rule="evenodd" d="M34.5744 85.3964C43.2783 88.4139 43.4284 78.9087 37.4257 77.249C34.4243 79.2104 32.9237 81.6245 34.5744 85.3964Z" fill="#E6E6E6"/>
<path fill-rule="evenodd" clip-rule="evenodd" d="M21.8186 1.207L21.3684 5.58244L30.2224 5.28068C30.2224 -1.65967 26.6208 -0.301774 21.8186 1.207Z" fill="#995555"/>
<path fill-rule="evenodd" clip-rule="evenodd" d="M65.0381 15.9928C66.989 18.8595 66.0886 15.9928 68.9398 21.4244C70.1404 23.5367 70.1404 23.084 71.0408 23.2349C73.1417 20.8209 70.8907 16.5963 69.0899 14.484C66.8389 14.484 66.6888 14.3332 65.0381 15.9928Z" fill="#995555"/>
</g>
<defs>
<clipPath id="clip0_553_468">
<rect width="72" height="86" fill="white"/>
</clipPath>
</defs>
</svg>
