<svg width="640" height="594" viewBox="0 0 640 594" fill="none" xmlns="http://www.w3.org/2000/svg">
<path d="M199.026 336.844C199.026 338.188 198.078 339.628 196.182 341.164C194.454 342.58 192.558 343.264 190.494 343.216C189.294 343.192 188.37 342.832 187.722 342.136C187.17 341.536 186.918 340.816 186.966 339.976C187.014 338.632 187.59 337.636 188.694 336.988C188.886 336.868 189.27 336.808 189.846 336.808C189.99 336.712 190.194 336.52 190.458 336.232C190.746 335.944 190.962 335.752 191.106 335.656C193.002 334.528 194.55 333.964 195.75 333.964C196.734 333.964 197.526 334.24 198.126 334.792C198.726 335.32 199.026 336.004 199.026 336.844ZM197.658 336.628C197.658 335.836 197.07 335.416 195.894 335.368C194.622 335.32 193.41 335.776 192.258 336.736C192.09 336.856 191.862 337.132 191.574 337.564C191.334 337.924 191.082 338.14 190.818 338.212C190.674 338.236 190.518 338.236 190.35 338.212H189.882C189.474 338.26 189.102 338.548 188.766 339.076C188.526 339.508 188.406 339.844 188.406 340.084C188.406 340.564 188.646 340.996 189.126 341.38C189.63 341.74 190.206 341.92 190.854 341.92C192.078 341.92 193.47 341.404 195.03 340.372C196.782 339.196 197.658 337.948 197.658 336.628ZM207.752 341.2C207.848 341.824 207.56 342.424 206.888 343C206.288 343.552 205.76 343.792 205.304 343.72C204.776 343.648 204.488 343.072 204.44 341.992C204.416 341.32 204.608 340.72 205.016 340.192C205.448 339.64 205.952 339.448 206.528 339.616C207.176 339.808 207.584 340.336 207.752 341.2ZM246.01 325.144C245.962 328.336 244.09 331.912 240.394 335.872C235.666 340.936 231.562 343.432 228.082 343.36C226.546 343.312 225.298 342.964 224.338 342.316C223.33 341.596 222.826 340.6 222.826 339.328C222.826 337.576 223.978 335.2 226.282 332.2C226.714 331.648 227.362 330.904 228.226 329.968C229.018 329.08 229.498 328.528 229.666 328.312C229.162 328.432 227.386 329.368 224.338 331.12C223.978 331.336 223.282 331.792 222.25 332.488C221.506 332.992 221.002 333.28 220.738 333.352C220.594 333.376 220.462 333.304 220.342 333.136C220.246 332.968 220.21 332.8 220.234 332.632C220.258 332.2 221.554 331.24 224.122 329.752C224.482 329.536 225.826 328.828 228.154 327.628C230.194 326.548 231.466 325.84 231.97 325.504L234.778 323.056L236.254 321.364C236.782 320.74 237.274 320.464 237.73 320.536C238.138 320.584 238.33 320.752 238.306 321.04C238.282 321.28 238.114 321.628 237.802 322.084C237.49 322.54 237.322 322.84 237.298 322.984C239.65 322.096 241.114 321.664 241.69 321.688C242.962 321.736 243.994 322.06 244.786 322.66C245.626 323.308 246.034 324.136 246.01 325.144ZM244.498 325C244.402 323.704 243.346 323.056 241.33 323.056C238.906 323.056 235.834 324.808 232.114 328.312C229.594 330.64 227.794 332.584 226.714 334.144C225.13 336.4 224.338 338.128 224.338 339.328C224.338 340.12 224.698 340.756 225.418 341.236C226.138 341.74 227.05 341.992 228.154 341.992C229.282 341.992 230.89 341.38 232.978 340.156C235.378 338.74 237.61 336.928 239.674 334.72C240.946 333.304 242.074 331.624 243.058 329.68C244.09 327.664 244.57 326.104 244.498 325ZM268.56 337.528C268.44 337.912 267.24 338.896 264.96 340.48C262.776 342.016 260.88 342.784 259.272 342.784C256.992 342.784 255.408 341.992 254.52 340.408C254.112 339.64 253.944 339.136 254.016 338.896C250.848 340.744 249.336 341.632 249.48 341.56C247.224 342.664 245.616 343.216 244.656 343.216C243.048 343.216 242.304 342.544 242.424 341.2C242.496 340.36 242.844 339.484 243.468 338.572C244.14 337.588 244.776 337.144 245.376 337.24C245.712 337.288 245.856 337.48 245.808 337.816C245.784 338.008 245.652 338.212 245.412 338.428C245.076 338.716 244.872 338.92 244.8 339.04C244.152 340 243.816 340.696 243.792 341.128C243.744 341.656 244.032 341.92 244.656 341.92C245.304 341.92 246.576 341.488 248.472 340.624C249.36 340.216 250.416 339.616 251.64 338.824C253.392 337.672 254.832 336.616 255.96 335.656L257.436 333.928C258.084 333.16 258.6 332.8 258.984 332.848C259.608 332.944 259.896 333.16 259.848 333.496C259.776 333.856 259.152 334.72 257.976 336.088C256.632 337.744 255.96 338.812 255.96 339.292C255.96 339.916 256.284 340.444 256.932 340.876C257.58 341.332 258.384 341.56 259.344 341.56C260.28 341.56 261.792 340.936 263.88 339.688C266.856 337.84 268.224 336.928 267.984 336.952C268.128 336.928 268.272 336.976 268.416 337.096C268.56 337.216 268.608 337.36 268.56 337.528ZM273.908 338.212C274.148 339.124 273.752 340.156 272.72 341.308C271.736 342.436 270.692 343.12 269.588 343.36C268.748 343.552 267.92 343.372 267.104 342.82C266.24 342.244 265.82 341.548 265.844 340.732C265.892 339.484 266.9 338.044 268.868 336.412L270.704 333.964C271.568 332.836 272.192 332.224 272.576 332.128C273.08 331.984 273.344 332.176 273.368 332.704C273.392 332.896 273.212 333.208 272.828 333.64C272.324 334.216 272 334.612 271.856 334.828C271.304 335.62 270.884 336.292 270.596 336.844C271.172 336.796 271.556 336.796 271.748 336.844C272.996 336.916 273.716 337.372 273.908 338.212ZM272.54 338.824C272.444 338.2 271.868 337.96 270.812 338.104C269.804 338.248 269.12 338.464 268.76 338.752C268.064 340.192 267.692 340.84 267.644 340.696C267.74 341.104 267.968 341.428 268.328 341.668C268.664 341.908 269.036 341.992 269.444 341.92C270.068 341.848 270.764 341.452 271.532 340.732C272.324 340.012 272.66 339.376 272.54 338.824ZM300.981 337.6C300.957 337.84 300.201 338.488 298.713 339.544C297.249 340.624 296.061 341.392 295.149 341.848C293.181 342.832 291.129 343.348 288.993 343.396C286.833 343.444 285.357 342.664 284.565 341.056C284.229 340.408 284.085 339.904 284.133 339.544C281.949 341.248 280.269 342.064 279.093 341.992C278.061 341.92 277.221 341.44 276.573 340.552C276.141 339.928 275.925 339.304 275.925 338.68C275.973 337.984 276.261 337.696 276.789 337.816C277.077 337.888 277.245 338.056 277.293 338.32C277.461 339.064 277.581 339.496 277.653 339.616C278.013 340.192 278.349 340.504 278.661 340.552C279.093 340.6 279.957 340.312 281.253 339.688C282.501 339.088 283.437 338.512 284.061 337.96C285.141 336.832 285.717 336.028 285.789 335.548C285.861 335.14 285.621 334.912 285.069 334.864C284.373 334.816 283.341 335.152 281.973 335.872C281.733 335.992 281.361 336.28 280.857 336.736C280.473 337.096 280.197 337.264 280.029 337.24C279.693 337.216 279.501 337.048 279.453 336.736C279.381 336.208 280.221 335.464 281.973 334.504C283.245 333.784 284.445 333.448 285.573 333.496C286.245 333.544 286.713 333.688 286.977 333.928L287.877 335.08C290.109 333.928 291.405 333.352 291.765 333.352C292.341 333.376 292.857 333.652 293.313 334.18C293.793 334.756 293.973 335.344 293.853 335.944C293.661 336.904 293.325 337.384 292.845 337.384C292.653 337.384 292.509 337.24 292.413 336.952C292.365 336.856 292.389 336.712 292.485 336.52C292.581 336.328 292.629 336.184 292.629 336.088C292.581 335.344 292.341 334.936 291.909 334.864C291.261 334.792 290.229 335.224 288.813 336.16C287.757 336.832 286.989 337.552 286.509 338.32C286.005 339.16 285.741 339.664 285.717 339.832C285.645 340.528 286.017 341.092 286.833 341.524C287.529 341.908 288.261 342.088 289.029 342.064C290.853 341.992 292.509 341.608 293.997 340.912C294.717 340.576 296.025 339.772 297.921 338.5C299.457 337.468 300.357 336.976 300.621 337.024C300.909 337.072 301.029 337.264 300.981 337.6ZM311.033 336.844C311.033 338.188 310.085 339.628 308.189 341.164C306.461 342.58 304.565 343.264 302.501 343.216C301.301 343.192 300.377 342.832 299.729 342.136C299.177 341.536 298.925 340.816 298.973 339.976C299.021 338.632 299.597 337.636 300.701 336.988C300.893 336.868 301.277 336.808 301.853 336.808C301.997 336.712 302.201 336.52 302.465 336.232C302.753 335.944 302.969 335.752 303.113 335.656C305.009 334.528 306.557 333.964 307.757 333.964C308.741 333.964 309.533 334.24 310.133 334.792C310.733 335.32 311.033 336.004 311.033 336.844ZM309.665 336.628C309.665 335.836 309.077 335.416 307.901 335.368C306.629 335.32 305.417 335.776 304.265 336.736C304.097 336.856 303.869 337.132 303.581 337.564C303.341 337.924 303.089 338.14 302.825 338.212C302.681 338.236 302.525 338.236 302.357 338.212H301.889C301.481 338.26 301.109 338.548 300.773 339.076C300.533 339.508 300.413 339.844 300.413 340.084C300.413 340.564 300.653 340.996 301.133 341.38C301.637 341.74 302.213 341.92 302.861 341.92C304.085 341.92 305.477 341.404 307.037 340.372C308.789 339.196 309.665 337.948 309.665 336.628ZM333.656 337.456C333.728 338.008 332.312 339.28 329.408 341.272C327.752 342.424 326.288 343 325.016 343C323.192 343 322.28 341.992 322.28 339.976C322.304 339.304 322.496 338.464 322.856 337.456C322.688 337.456 322.328 337.42 321.776 337.348C321.32 337.3 320.984 337.288 320.768 337.312C319.64 337.456 318.728 337.504 318.032 337.456L316.448 339.616C314.72 341.92 313.616 343.048 313.136 343C312.752 342.928 312.56 342.88 312.56 342.856C312.44 342.544 312.992 341.56 314.216 339.904C314.888 338.992 315.488 337.984 316.016 336.88C315.776 337 314.984 337.528 313.64 338.464C312.584 339.208 311.888 339.592 311.552 339.616C311.312 339.616 311.168 339.448 311.12 339.112C311.048 338.704 311.456 338.212 312.344 337.636C313.856 336.676 314.912 335.944 315.512 335.44C317.312 333.856 318.524 333.1 319.148 333.172C319.46 333.196 319.664 333.448 319.76 333.928C319.856 334.408 319.664 335.032 319.184 335.8H321.2C321.32 335.8 321.68 335.836 322.28 335.908C322.76 335.98 323.096 335.992 323.288 335.944C323.696 335.536 324.08 335.104 324.44 334.648C325.376 333.496 326.072 332.92 326.528 332.92C327.248 332.92 327.56 333.112 327.464 333.496C327.44 333.592 327.032 334.288 326.24 335.584C324.704 338.104 323.936 339.568 323.936 339.976C323.936 341.08 324.44 341.632 325.448 341.632C326.288 341.632 327.32 341.224 328.544 340.408C328.904 340.168 329.768 339.496 331.136 338.392C332.288 337.456 332.936 336.976 333.08 336.952C333.416 336.88 333.608 337.048 333.656 337.456Z" fill="#242424"/>
<g clip-path="url(#clip0_541_69)">
<path fill-rule="evenodd" clip-rule="evenodd" d="M349.478 393.217H348.662C346.217 393.217 344.586 392.401 343.771 389.955C342.14 388.324 342.14 386.694 342.955 385.063C343.771 381.801 345.401 380.17 347.847 378.54C347.847 378.54 348.662 377.724 348.662 376.909C349.478 375.278 350.293 373.647 351.108 372.832C351.924 372.017 352.739 371.201 353.554 371.201C353.554 371.201 353.554 371.201 353.554 370.386C356 365.493 356.815 364.678 361.707 363.047C361.707 363.047 362.522 362.232 362.522 361.416C364.153 358.97 364.153 357.339 366.599 354.893C367.414 354.078 369.045 352.447 370.675 351.632C371.49 351.632 372.306 350.816 373.121 350.816C373.936 350.001 373.936 349.185 374.752 348.37C378.013 343.478 391.057 336.954 396.764 333.693C398.395 332.878 399.21 332.062 400.026 331.247C402.471 328.801 404.102 327.985 406.548 326.354V325.539C406.548 323.908 406.548 322.277 406.548 320.647C406.548 319.016 407.363 317.385 408.178 316.57C408.994 314.939 409.809 313.308 410.624 312.493C411.44 310.046 412.255 306.785 413.07 304.339C417.962 294.554 426.93 291.292 435.083 284.769C436.713 283.954 439.159 282.323 439.975 280.692C440.79 279.061 442.42 278.246 443.236 276.615C444.866 274.169 446.497 273.354 448.943 272.538C449.758 272.538 450.573 272.538 451.389 271.723C451.389 271.723 451.389 271.723 451.389 270.907C452.204 270.092 453.019 269.277 453.834 267.646C454.65 266.83 456.28 265.2 457.911 264.384C457.911 264.384 458.726 263.569 459.541 263.569C459.541 262.753 459.541 260.307 460.357 259.492C461.172 255.415 461.172 252.969 464.433 249.707C466.064 247.261 466.879 242.368 466.879 239.922C466.064 234.215 467.694 230.138 472.586 227.691C472.586 226.876 474.217 226.061 475.032 226.061L479.924 214.645C480.739 212.199 481.554 210.568 483.185 208.937C484 206.491 484 204.045 484.815 201.599C485.631 199.152 485.631 195.075 486.446 191.814C488.076 188.552 489.707 184.475 492.153 181.214C493.784 180.398 495.414 178.768 497.045 177.137C499.491 173.875 501.936 168.983 504.382 164.906C507.643 158.383 508.459 157.567 508.459 150.229C509.274 148.598 509.274 147.782 510.905 146.152C510.905 146.152 510.905 146.152 510.905 145.336C510.905 143.705 510.905 142.075 510.905 140.444C510.905 138.813 511.72 137.182 513.35 136.367C514.166 135.552 515.796 133.921 516.612 133.105C516.612 133.105 516.612 133.105 516.612 132.29C516.612 131.475 517.427 130.659 517.427 129.028C516.612 128.213 515.796 127.398 515.796 126.582C514.166 123.321 514.981 120.059 517.427 118.428L519.873 116.797L520.688 115.982C522.319 115.167 523.134 114.351 523.949 113.536C525.58 111.09 526.395 108.643 528.841 107.013C529.656 107.013 530.471 107.013 530.471 106.197C530.471 104.566 531.287 102.12 532.102 100.489C532.917 98.0433 533.733 95.5971 534.548 93.9663C535.363 93.1509 536.178 92.3355 536.994 91.5201C537.809 89.8893 537.809 84.1815 537.809 81.7354C537.809 80.1046 538.624 79.2892 538.624 77.6584C538.624 76.843 538.624 76.0276 538.624 75.2122C537.809 71.1352 538.624 69.5044 539.44 65.4274C540.255 64.612 540.255 63.7966 539.44 62.1658C538.624 59.7197 537.809 58.0889 537.809 55.6427C536.178 54.8273 536.178 52.3811 536.178 49.9349C536.994 49.1195 536.994 47.4887 537.809 46.6733C537.809 45.8579 538.624 45.8579 538.624 45.8579C538.624 45.0425 538.624 44.2271 538.624 43.4117C538.624 41.7809 538.624 40.9655 538.624 39.3347C538.624 37.7039 539.44 36.8885 540.255 36.0732L543.516 31.9962C545.147 29.55 546.777 28.7346 549.223 27.9192C550.038 27.9192 550.854 27.1038 551.669 27.1038C551.669 26.2884 551.669 26.2884 551.669 26.2884C552.484 24.6576 552.484 23.8422 553.299 23.0268C554.115 21.396 554.93 19.7652 556.561 18.9498C557.376 18.9498 558.191 18.1344 558.191 18.1344C559.006 18.1344 559.006 17.319 559.006 16.5036C559.822 15.6882 560.637 14.0574 561.452 13.2421C563.898 9.16507 567.159 5.90348 570.42 3.45729C574.497 -0.619688 580.204 0.195709 585.096 1.01111C589.172 1.8265 594.064 2.6419 597.325 5.08809C598.955 6.71888 600.586 8.34967 602.217 10.7959C602.217 10.7959 602.217 11.6113 603.032 12.4267H603.847C605.478 13.2421 607.108 14.0575 608.739 14.8728C611.185 16.5036 612 19.7652 612 23.0268C611.185 25.473 609.554 27.9192 607.924 29.55C607.924 30.3654 607.924 30.3654 607.924 30.3654C607.924 31.9962 607.108 32.8116 607.108 34.4424C605.478 36.0732 604.662 36.8885 603.847 38.5193C604.662 40.1501 605.478 41.7809 604.663 43.4117C604.663 45.0425 604.662 45.8579 603.847 46.6733C604.662 47.4887 605.478 47.4887 606.293 49.1195C607.108 50.7503 607.108 52.3811 607.108 54.0119C606.293 55.6427 605.478 57.2735 603.847 58.0889C603.032 58.0889 602.217 58.9043 602.217 58.9043C602.217 59.7197 602.217 59.7197 602.217 60.535C601.401 62.1658 601.401 63.7966 601.401 65.4274C600.586 67.8736 599.771 70.3198 598.14 72.766C598.14 73.5814 597.325 74.3968 597.325 75.2122C597.325 76.0276 598.14 76.843 598.14 77.6584C599.771 80.92 599.771 83.3661 598.955 86.6277C598.955 88.2585 598.14 89.0739 597.325 89.8893C595.694 91.5201 594.064 93.1509 593.249 94.7817C594.879 97.2279 596.51 99.6741 594.879 102.936C594.879 102.936 594.879 102.936 594.879 103.751C595.694 104.566 595.694 105.382 596.51 106.197C597.325 108.643 597.325 111.09 597.325 113.536C596.51 115.167 595.694 115.982 594.879 117.613C592.433 119.244 591.618 119.244 592.433 122.505C593.248 126.582 593.248 129.844 590.803 133.105C589.987 134.736 589.172 134.736 588.357 135.552C589.172 137.182 589.987 137.998 589.987 140.444C589.987 142.89 589.172 144.521 587.541 145.336C586.726 146.152 585.911 146.967 585.911 146.967C585.911 148.598 586.726 150.229 586.726 151.044C587.541 154.306 586.726 156.752 585.911 160.013C585.096 164.09 581.834 166.537 578.573 168.983C577.758 169.798 576.127 170.614 576.127 172.244C576.127 173.06 576.127 174.691 576.127 175.506C576.943 177.952 576.943 180.398 576.943 182.845C576.127 184.475 575.312 186.106 575.312 187.737C575.312 188.552 575.312 189.368 575.312 190.183C576.127 192.629 576.127 195.891 575.312 198.337C574.497 199.152 574.497 199.968 573.682 201.599C573.682 201.599 574.497 202.414 574.497 203.229C575.312 204.86 575.312 206.491 575.312 208.122C576.127 209.753 575.312 210.568 574.497 212.199C574.497 212.199 573.682 213.014 572.866 213.83L576.943 224.43C578.573 227.691 579.389 229.322 580.204 232.584C580.204 235.03 579.389 237.476 577.758 239.922C576.943 241.553 576.127 241.553 575.312 242.368C575.312 243.184 574.497 247.261 573.682 248.076C572.866 252.153 571.236 256.23 567.975 259.492C567.159 261.123 565.529 261.938 563.898 263.569C562.268 265.2 561.452 266.83 559.822 268.461C558.191 270.092 555.745 271.723 554.93 274.169C553.299 277.431 553.299 279.061 550.854 282.323L550.038 283.138C550.038 283.954 550.854 283.954 550.854 284.769C551.669 286.4 551.669 288.031 551.669 290.477C551.669 292.108 550.854 293.738 550.038 294.554C550.854 296.185 551.669 297 551.669 298.631C552.484 301.077 550.854 303.523 549.223 305.154H548.408C548.408 306.785 547.592 308.416 546.777 309.231C545.962 310.046 545.147 310.862 543.516 311.677C540.255 313.308 534.548 312.493 530.471 311.677C532.102 314.939 532.917 318.2 533.733 321.462C534.548 325.539 535.363 329.616 535.363 333.693C534.548 336.954 533.733 339.401 532.917 342.662C532.917 345.108 531.287 346.739 528.841 347.555C525.58 347.555 522.319 351.632 520.688 353.262C515.796 357.339 510.905 359.786 504.382 358.155C502.752 358.155 501.936 357.339 501.121 356.524C498.675 358.155 497.045 360.601 496.229 362.232C492.153 367.124 488.077 371.201 482.37 375.278C481.554 375.278 480.739 376.094 479.924 376.909C480.739 376.909 480.739 377.724 481.554 378.54C484 382.617 481.554 387.509 479.108 390.771C477.478 393.217 475.847 395.663 473.401 397.294C472.586 398.109 471.771 398.925 471.771 399.74C470.14 403.002 468.51 404.632 466.064 407.079C463.618 408.709 461.172 410.34 458.726 411.156C457.911 411.156 456.28 411.971 455.465 411.971C455.465 412.786 453.834 415.233 453.834 416.048C453.019 418.494 452.204 420.125 449.758 421.756C448.943 422.571 448.127 422.571 447.312 423.387C445.682 424.202 444.866 425.017 444.051 425.833C441.605 427.463 439.975 429.094 438.344 429.91C432.637 433.987 426.93 434.802 420.408 433.987C416.331 433.987 412.255 433.987 408.994 436.433C406.548 438.064 404.102 441.325 401.656 443.771C390.242 453.556 369.045 452.741 364.968 469.864C364.153 473.941 362.522 478.018 359.261 481.28C356.815 484.541 352.739 486.172 348.662 484.541C343.771 483.726 341.325 480.464 338.064 477.203C336.433 476.387 331.541 475.572 329.911 476.387C328.28 476.387 328.28 477.203 326.65 478.018C324.204 479.649 321.758 480.464 319.312 481.28C319.312 482.095 318.497 482.91 317.682 484.541C316.866 485.357 315.236 486.987 315.236 488.618C315.236 489.434 316.051 492.695 316.866 493.511C318.497 498.403 319.312 503.295 316.866 508.188C316.051 509.819 315.236 510.634 313.605 511.449C313.605 513.08 313.605 513.896 312.79 514.711C311.975 516.342 311.159 517.157 310.344 517.972C310.344 517.972 309.529 518.788 309.529 519.603C310.344 522.049 311.159 523.68 311.159 526.942C311.159 528.573 310.344 530.203 308.713 531.834C307.083 532.65 306.268 533.465 303.822 535.096C303.822 535.096 303.006 535.096 303.006 535.911C302.191 536.727 302.191 537.542 301.376 538.357C300.561 540.804 298.93 542.434 297.299 544.065C295.669 545.696 294.854 547.327 294.038 548.958C292.408 551.404 291.592 553.85 289.147 556.296V557.112L287.516 558.742C286.701 559.558 285.885 559.558 285.07 560.373C282.624 561.188 281.809 561.188 279.363 560.373C279.363 560.373 279.363 561.189 278.548 561.189C277.733 562.004 276.102 562.819 273.656 563.635C266.319 565.266 260.612 568.527 253.274 571.789C242.675 576.681 231.261 579.943 219.032 583.204C215.771 584.02 213.325 584.02 210.879 584.835C209.248 584.835 208.433 584.835 207.618 585.65C205.172 585.65 201.096 589.727 199.465 590.543C194.573 594.62 188.051 594.62 181.529 592.989C179.898 592.174 178.268 592.174 176.637 592.174C174.191 592.989 172.561 592.989 170.115 592.989C165.223 592.174 161.147 590.543 157.07 590.543C153.809 590.543 151.363 590.543 148.917 588.912C146.471 588.097 144.841 587.281 143.21 586.466L142.395 585.65C140.764 585.65 139.134 585.65 137.503 584.835C136.688 584.02 135.057 583.204 134.242 582.389C133.427 582.389 133.427 582.389 133.427 581.573C132.611 581.573 131.796 581.573 131.796 581.573C130.166 581.573 128.535 580.758 126.904 580.758C124.459 579.127 123.643 578.312 122.013 576.681C122.013 576.681 120.382 575.866 119.567 575.866C116.306 575.866 113.045 574.235 110.599 571.789C108.968 569.342 108.153 570.158 105.707 568.527C103.261 566.896 101.631 566.081 100.815 563.635C100.815 562.819 100.815 562.819 100.815 562.819C98.3695 555.481 102.446 549.773 109.783 548.958C112.229 548.142 113.86 548.142 116.306 548.142C117.936 548.142 119.567 548.142 121.197 548.142C122.013 548.142 122.828 547.327 123.643 547.327C126.089 546.511 127.72 545.696 130.166 545.696C132.611 544.881 135.873 544.881 139.134 544.065C148.102 541.619 156.255 539.988 165.223 540.804C170.115 540.804 173.376 541.619 178.268 541.619C178.268 540.804 179.083 539.988 180.713 539.173C181.529 538.357 182.344 535.911 183.159 534.28C186.42 530.203 190.497 529.388 195.389 529.388C197.834 529.388 200.28 530.203 202.726 530.203C203.541 531.019 205.172 531.019 205.172 531.019C206.803 531.019 210.064 528.573 211.694 527.757C213.325 526.942 215.771 526.126 218.217 525.311C219.847 525.311 221.478 525.311 223.108 525.311C224.739 524.496 224.739 524.496 225.554 522.865C226.369 521.234 226.369 519.603 227.185 517.972C228.815 515.526 231.261 513.896 233.707 513.08C234.522 513.08 234.522 512.265 235.338 512.265C236.153 511.449 236.968 511.449 238.599 510.634C239.414 509.819 241.045 509.819 241.86 509.003C243.49 507.372 245.121 505.742 246.752 504.111C248.382 504.111 249.198 503.295 250.013 502.48C252.459 499.218 254.089 495.957 256.535 492.695C258.166 490.249 258.166 488.618 259.796 486.172C260.612 483.726 261.427 481.28 263.873 479.649C264.688 478.833 264.688 478.833 264.688 478.018C265.503 477.203 266.319 476.387 267.134 474.757C267.949 473.126 268.764 471.495 270.395 469.864C271.21 469.049 271.21 469.049 272.026 469.049C272.026 468.233 272.026 468.233 272.026 468.233C272.841 466.603 272.841 465.787 273.656 464.156C274.471 460.895 276.917 458.449 278.548 456.002C285.07 447.848 299.745 439.694 309.529 435.617C312.79 433.987 315.236 433.171 318.497 432.356C320.127 431.54 322.573 429.094 323.389 427.463C325.019 425.833 327.465 423.387 329.096 421.756C329.096 420.94 329.096 420.94 329.096 420.94C328.28 417.679 329.096 415.233 331.541 413.602C332.357 413.602 332.357 412.786 333.172 412.786H333.987L334.803 411.971C336.433 409.525 338.879 407.894 341.325 406.263C342.14 405.448 343.771 403.817 344.586 403.002C345.401 402.186 346.217 400.555 346.217 398.925C347.032 398.109 347.032 396.478 347.847 395.663C347.847 394.848 348.662 394.032 349.478 393.217ZM521.503 303.523C521.503 302.708 521.503 301.077 522.319 300.262C523.134 298.631 523.949 297.815 525.58 296.185L526.395 295.369L527.21 294.554C527.21 293.738 527.21 292.923 527.21 292.108C524.764 290.477 523.949 287.215 524.764 284.769C525.58 283.138 525.58 282.323 526.395 280.692C525.58 280.692 524.764 280.692 523.949 280.692C523.134 281.508 522.319 282.323 521.503 283.138C517.427 287.215 513.35 293.738 511.72 298.631C510.905 301.077 510.089 303.523 508.459 305.969C509.274 305.969 510.089 305.969 510.089 305.969C510.905 305.154 512.535 305.154 513.35 304.339C515.796 303.523 518.242 302.708 520.688 303.523H521.503ZM380.459 376.094C384.535 375.278 388.612 374.463 393.503 374.463C394.319 374.463 395.134 373.647 396.764 373.647C396.764 373.647 397.58 372.832 397.58 372.017C399.21 370.386 400.026 368.755 401.656 367.124C403.287 365.493 404.102 364.678 405.733 363.863C404.102 364.678 402.471 365.493 401.656 365.493C400.026 367.94 398.395 368.755 395.949 368.755C395.134 369.57 393.503 369.57 392.688 369.57C391.873 370.386 391.057 372.017 390.242 372.017C389.427 374.463 386.981 375.278 385.35 374.463C383.72 374.463 382.905 374.463 382.905 374.463C382.089 375.278 381.274 376.094 380.459 376.094Z" fill="#FEFEFE"/>
<path fill-rule="evenodd" clip-rule="evenodd" d="M428.561 357.339C424.484 358.155 422.038 357.339 418.777 359.786C415.516 361.416 416.331 363.047 413.07 366.309C410.624 368.755 408.178 368.755 406.548 371.201C395.949 382.617 407.363 377.724 381.274 382.617C376.382 383.432 368.229 389.955 364.153 385.878C365.783 382.617 365.783 385.063 366.599 381.801L363.338 383.432C364.153 380.986 364.153 381.801 365.783 380.17L363.338 379.355C365.783 377.724 366.599 376.093 369.045 373.647C372.306 372.832 373.936 373.647 376.382 371.201C383.72 365.493 379.643 367.94 385.35 368.755C391.057 362.232 388.611 364.678 394.319 363.047C399.21 361.416 392.688 363.047 404.102 357.339C408.178 355.709 406.548 354.078 409.809 352.447C413.885 349.185 419.592 350.816 422.854 345.108C425.299 340.216 426.115 334.508 431.822 334.508C431.822 339.401 430.191 342.662 430.191 346.739C430.191 351.632 431.006 352.447 428.561 357.339ZM545.147 40.1501C544.331 42.5963 545.147 45.0425 544.331 46.6733C544.331 48.3041 542.701 49.9349 542.701 51.5657L544.331 54.0119C542.701 58.9042 547.592 60.535 545.147 67.8736C544.331 71.1352 544.331 70.3198 545.147 74.3968C545.147 77.6583 544.331 79.2891 544.331 82.5507C543.516 98.8587 541.07 93.1509 537.809 102.12C536.178 106.197 537.809 107.013 536.994 111.09C531.287 113.536 532.917 111.09 528.841 116.797C527.21 119.244 525.58 120.874 523.949 121.69L520.688 123.321C523.134 127.398 523.949 124.951 525.58 128.213C523.949 130.659 524.764 129.028 523.134 131.475C522.319 133.105 523.134 133.921 522.318 135.551C521.503 137.998 518.242 140.444 517.427 141.259C516.611 146.967 519.057 147.782 514.981 151.044C514.166 160.013 513.35 160.829 509.274 167.352C506.828 173.06 504.382 177.137 501.936 181.214C497.86 186.106 495.414 184.475 492.968 194.26C491.338 198.337 489.707 208.122 489.707 212.199C487.261 214.645 487.261 213.014 485.631 217.091L480.739 228.507C477.478 233.399 472.586 230.953 473.401 239.107C473.401 243.999 472.586 250.522 469.325 253.784C466.879 256.23 466.879 257.046 466.064 261.123C464.433 270.907 462.803 266.83 458.726 271.723C457.096 274.169 456.28 275.8 454.65 276.615C452.204 278.246 449.758 278.246 448.127 280.692C443.236 286.4 447.312 283.138 439.159 289.661C431.822 295.369 422.854 298.631 418.777 307.6C416.331 311.677 416.331 317.385 413.07 320.647C412.255 326.354 414.701 329.616 409.809 332.062C404.102 334.508 404.917 336.139 400.026 339.401C395.134 341.847 382.089 348.37 379.643 351.632C378.013 354.078 378.828 354.893 376.382 356.524C373.936 357.339 372.306 357.339 370.675 358.97C368.229 362.232 368.229 366.309 364.153 368.755C360.892 370.386 360.892 369.57 359.261 372.832C357.631 377.724 358.446 374.463 355.185 376.909C354.369 378.54 354.369 380.986 352.739 382.617C351.108 385.063 350.293 383.432 348.662 386.694C353.554 386.694 353.554 384.247 357.631 383.432L358.446 384.247C360.892 386.694 361.707 386.694 361.707 389.955C349.478 401.371 355.185 395.663 350.293 406.263C349.478 409.525 342.955 411.156 339.694 416.048L337.248 417.679H336.433L335.618 418.494H334.803C336.433 424.202 337.248 423.386 333.172 426.648C331.541 427.463 325.019 436.433 320.943 438.064C317.682 438.879 315.236 439.694 311.975 441.325C302.191 446.218 288.331 452.741 283.44 460.079C281.809 461.71 280.178 463.341 279.363 466.602C278.548 468.233 278.548 469.049 277.733 470.679C276.102 473.941 276.917 472.31 275.287 473.941C272.026 477.203 272.026 478.018 270.395 481.28C267.949 484.541 267.134 482.91 265.503 488.618C263.873 491.88 263.873 492.695 261.427 495.957C258.166 500.849 258.166 502.48 254.089 506.557C253.274 508.188 249.197 509.819 245.936 513.08C244.306 515.526 243.49 515.526 240.229 516.342C238.599 517.157 238.599 517.972 236.153 518.788C232.076 520.419 232.892 521.234 231.261 525.311C226.369 534.28 221.478 529.388 214.14 533.465C203.541 539.988 207.618 536.727 195.389 535.911C187.236 535.096 188.866 539.988 183.975 544.065C182.344 544.881 182.344 544.881 181.529 547.327C168.484 548.958 164.408 543.25 140.764 550.588C136.688 551.404 134.242 551.404 130.981 551.404C126.905 552.219 125.274 553.85 121.198 554.665C116.306 554.665 104.076 553.035 106.522 561.188C107.338 562.004 106.522 561.188 108.153 562.819C112.229 564.45 112.229 564.45 115.491 566.896C119.567 571.789 122.013 569.342 125.274 570.973C127.72 572.604 126.905 573.419 129.35 575.05C130.981 575.866 133.427 575.05 135.873 575.866C138.319 576.681 138.319 578.312 139.949 579.127C142.395 579.943 144.026 579.943 146.471 580.758C150.548 583.204 151.363 584.02 157.07 584.835C163.592 584.835 165.223 585.65 170.115 586.466C175.822 587.281 175.822 584.835 183.159 587.281C188.051 588.097 192.127 588.097 196.204 585.65C206.803 577.496 202.726 579.943 217.401 576.681C252.459 569.342 254.089 562.004 272.841 557.112C275.287 557.112 275.287 555.481 277.733 554.665C280.178 553.85 280.178 555.481 283.44 554.665L284.255 553.035C287.516 548.958 289.147 543.25 293.223 539.988C296.484 535.911 294.854 535.911 297.299 532.65C300.561 529.388 301.376 529.388 304.637 526.942C305.452 519.603 299.745 522.049 305.452 514.711C307.898 511.449 307.898 513.08 307.898 508.188C309.529 507.372 310.344 507.372 311.159 504.926C315.236 498.403 307.083 492.695 308.713 486.172C310.344 482.91 314.42 478.833 315.236 474.756C325.019 474.756 321.758 473.126 327.465 470.679C331.541 468.233 338.879 469.864 341.325 472.31C347.032 476.387 354.369 486.987 359.261 468.233C364.153 447.848 386.981 447.848 397.58 438.879C402.471 433.987 404.917 426.648 420.408 428.279C434.268 429.094 438.344 421.756 444.051 417.679C446.497 416.863 446.497 416.863 448.127 413.602C452.204 403.817 453.019 408.709 461.987 402.186C466.879 398.925 466.064 394.848 470.14 392.401C471.771 390.771 477.478 384.247 475.847 380.986C473.401 378.54 472.586 379.355 471.771 375.278C475.032 372.016 481.554 370.386 491.338 358.155C493.783 354.078 497.86 349.185 504.382 348.37L505.197 352.447C514.166 354.078 519.057 343.478 527.21 341.031C528.841 333.693 530.471 332.877 528.026 323.093C522.319 303.523 515.796 310.046 512.535 311.677C504.382 314.939 505.197 311.677 497.86 318.2C496.229 319.831 494.599 323.093 491.338 320.647C492.153 316.57 493.783 320.646 495.414 315.754C499.49 306.785 501.121 311.677 506.013 297C507.643 290.477 512.535 283.138 517.427 279.061C524.764 270.907 520.688 276.615 527.21 273.353C529.656 272.538 528.026 272.538 532.102 272.538C532.102 274.169 532.917 275.8 533.733 277.43C535.363 280.692 533.733 279.061 534.548 282.323C531.287 283.138 531.287 283.954 530.471 287.215C532.917 288.031 533.733 288.031 535.363 289.661C534.548 292.108 533.733 291.292 533.733 292.923C532.917 294.554 532.917 296.185 532.102 297.815C531.287 300.262 529.656 300.262 528.026 303.523C530.471 305.969 537.809 307.6 541.885 305.969C543.516 302.708 541.885 302.708 545.962 300.262C545.147 297 544.331 297.815 543.516 295.369C544.331 293.738 545.147 291.292 545.147 289.661C545.962 284.769 541.07 284.769 545.962 278.246C550.038 273.354 546.777 271.723 555.745 263.569C557.376 261.938 557.376 261.123 559.822 259.492C560.637 257.861 562.268 257.046 563.898 255.415C568.79 249.707 567.975 242.368 570.42 238.291C572.866 236.661 573.682 236.661 573.682 232.584C573.682 230.953 572.866 229.322 571.236 226.876L567.159 214.645C567.159 211.383 567.975 210.568 569.605 208.122C569.605 204.86 567.159 202.414 567.975 199.968C568.79 195.891 570.42 196.706 568.79 190.998C567.975 186.921 569.605 185.291 570.42 182.029C571.236 178.768 569.605 173.875 570.42 170.614C571.236 164.906 578.573 163.275 580.204 158.383C581.834 153.49 580.204 151.859 579.389 147.782C578.573 142.89 581.834 142.89 583.465 141.259C583.465 138.813 582.65 137.182 581.834 135.551C581.834 130.659 587.541 132.29 585.911 124.136C585.096 117.613 587.541 115.982 590.803 112.72C591.618 107.013 589.172 107.828 588.357 103.751C588.357 98.8587 590.803 102.936 587.541 96.4125C587.541 91.5201 589.987 88.2585 593.248 85.8123C594.064 80.1045 592.433 80.1045 590.803 76.8429C589.987 74.3968 594.879 67.8736 594.879 64.612C596.51 55.6426 594.064 56.458 600.586 52.3811C599.771 50.7503 600.586 52.3811 598.955 50.7503C594.879 48.3041 598.14 46.6733 598.955 42.5963L594.879 40.9655C596.51 36.0731 599.771 34.4423 601.401 31.1807C602.217 29.55 602.217 27.9192 603.032 26.2884C610.369 17.319 600.586 19.7652 598.14 16.5036C595.694 13.242 597.325 13.242 593.248 9.98044C589.987 7.53425 577.758 4.27266 574.497 7.53425C567.159 14.0574 564.713 20.5806 562.268 23.0268C561.452 23.8422 559.822 23.8422 559.006 25.473C557.376 27.9192 558.191 27.9192 556.561 30.3654C553.299 34.4423 550.038 33.6269 547.592 36.0731L545.147 40.1501Z" fill="#1376AD"/>
</g>
<path d="M377.496 377.917C398.757 377.917 415.992 372.495 415.992 365.806C415.992 359.118 398.757 353.696 377.496 353.696C356.235 353.696 339 359.118 339 365.806C339 372.495 356.235 377.917 377.496 377.917Z" fill="white"/>
<path fill-rule="evenodd" clip-rule="evenodd" d="M369.757 323.388C369.555 319.132 372.682 315.626 376.923 315.34C381.118 315.054 384.686 318.422 384.856 322.569C385.034 326.756 381.969 330.432 377.705 330.625C373.533 330.818 369.958 327.559 369.757 323.388ZM375.778 305.145C370.02 305.663 364.85 309.285 361.955 314.197C358.519 320.028 359.215 326.632 361.661 332.664C363.619 337.507 367.017 342.944 369.594 347.594C370.956 350.05 372.318 352.506 373.681 354.962C374.346 356.152 375.136 357.418 375.731 358.631C376.064 359.311 376.885 361.705 377.844 360.469C378.448 359.681 379.284 357.789 379.911 356.754C380.623 355.572 381.296 354.283 381.969 353.07C383.332 350.614 384.694 348.165 386.056 345.702C388.649 341.006 392.07 335.545 393.718 330.502C395.746 324.323 395.428 317.688 391.404 312.367C387.79 307.578 381.83 304.604 375.778 305.145Z" fill="#E80800"/>
<path fill-rule="evenodd" clip-rule="evenodd" d="M385.475 354.638C385.561 354.707 391.574 355.464 392.348 355.603C394.492 355.982 396.628 356.438 398.687 357.148C401.643 358.16 408.291 361.141 403.655 364.794C394.709 371.838 359.989 371.684 351.252 364.833C346.6 361.18 353.124 358.206 356.135 357.179C360.492 355.696 364.827 355.271 369.346 354.646C369.207 354.507 361.135 355.511 360.283 355.642C355.81 356.306 348.79 357.92 345.114 360.601C342.761 362.323 341.747 364.671 344.209 366.903C350.578 372.696 368.294 373.87 376.978 373.947H378.58C387.302 373.862 404.739 372.418 410.698 366.942C411.666 366.053 412.084 365.127 412.092 364.231V364.184C412.068 362.856 411.147 361.597 409.754 360.601C404.081 356.53 392.155 355.04 385.475 354.638Z" fill="#E80800"/>
<path fill-rule="evenodd" clip-rule="evenodd" d="M369.547 354.645L369.424 354.638C369.447 354.653 369.408 354.722 369.547 354.645Z" fill="#E80800"/>
<defs>
<clipPath id="clip0_541_69">
<rect width="512" height="594" fill="white" transform="translate(100)"/>
</clipPath>
</defs>
</svg>
